<?xml version="1.0" encoding="UTF-8"?> <svg xmlns="http://www.w3.org/2000/svg" width="165" height="190" viewBox="0 0 165 190" fill="none"><path d="M108.849 51.8165C108.849 51.8165 108.254 56.1618 103.313 54.376C103.313 54.376 102.063 53.6617 101.17 52.5308C100.486 53.9891 99.8312 55.4475 99.1467 56.9058C98.4324 58.4832 96.111 57.1141 96.8253 55.5665C97.6288 53.8701 98.4026 52.1439 99.2062 50.4475C99.4443 49.9117 99.8907 49.7034 100.337 49.7629C100.337 49.7332 100.337 49.7034 100.367 49.6736C100.367 49.6439 104.891 51.8165 108.849 51.8165Z" fill="#007C3F"></path><path d="M66.5272 53.0368C66.2593 52.0844 65.9617 51.1023 65.6939 50.1499C64.9498 50.6261 64.2653 50.8344 64.2653 50.8344C59.3248 52.0249 56.9736 46.8761 56.9736 46.8761L66.1105 46.6975C66.3486 46.638 66.5867 46.638 66.8248 46.6975H67.4201C67.4498 46.8166 67.4498 46.9654 67.4498 47.0844C67.5689 47.2332 67.6879 47.4118 67.7474 47.6201C68.1939 49.1975 68.6701 50.7749 69.1165 52.3523C69.5927 53.9892 67.0034 54.7035 66.5272 53.0368Z" fill="#007C3F"></path><path d="M66.8846 101.371C58.8191 105.002 55.5155 93.6619 56.9143 87.3821C52.6881 87.0845 54.3548 82.0547 54.3548 82.0547L57.0334 86.8761C57.0631 86.7273 57.1226 86.5785 57.1524 86.4595C57.6881 84.8226 60.2774 85.5368 59.7417 87.1738C58.6107 90.5666 59.6524 101.698 65.5155 99.0488C67.1227 98.3643 68.462 100.656 66.8846 101.371Z" fill="#007C3F"></path><path d="M112.837 87.5907C114.265 91.5193 113.432 96.2812 111.14 99.7038C108.521 103.603 104.116 104.466 100.069 102.263C98.5511 101.43 99.9202 99.1086 101.408 99.9419C108.61 103.871 112.271 93.5133 110.158 88.0669C109.741 86.9657 110.783 86.3109 111.706 86.4895L112.003 81.6978C112.003 81.6978 116.468 85.3288 112.837 87.5907Z" fill="#007C3F"></path><path d="M100.396 107.531C99.7414 108.126 99.0867 108.722 98.3724 109.257C98.045 109.496 97.7474 109.763 97.42 110.001C97.42 110.001 81.2295 122.799 66.7651 103.007C76.7652 108.93 88.9081 109.734 100.396 107.531Z" fill="#007C3F"></path><path d="M112.51 82.2034C111.974 92.1439 107.688 101.222 100.396 107.829C88.938 110.031 76.7654 109.228 66.7653 103.305C65.9915 102.234 65.2177 101.103 64.4439 99.8523C64.4439 99.8523 36.4379 62.1736 61.676 54.0783C77.3011 49.0783 95.069 50.9831 107.777 61.8462C112.718 66.0129 112.837 76.1915 112.51 82.2034Z" fill="#5AD776"></path><path d="M88.819 130.418C87.5095 128.692 86.4083 126.371 85.9321 123.811C85.8726 123.454 85.813 123.067 85.7535 122.71C85.1583 124.198 84.1761 126.073 82.8964 127.829C80.813 130.775 78.0749 133.424 76.4678 134.674C81.5868 129.436 85.069 122.353 85.3071 120.24C85.5154 119.615 85.575 118.96 85.694 118.305L85.7238 118.186V118.156C85.4559 118.126 85.3369 118.097 85.7238 118.156V118.126V118.097C85.4857 118.067 87.8071 118.394 86.825 118.246V118.275V118.305C86.8547 118.305 86.8547 118.305 86.825 118.305V118.335L86.7952 118.454C86.7357 118.811 86.7059 119.168 86.6464 119.525C86.6166 119.704 86.6166 119.912 86.6166 120.091C86.5571 121.4 86.6166 122.71 86.825 123.96C87.2416 126.46 88.194 128.692 89.3547 130.388C91.6464 133.662 94.2059 135.002 94.325 135.15C94.1464 135.002 91.3488 133.781 88.819 130.418Z" fill="#007C3F"></path><path d="M91.2306 103.811C91.2008 104.555 90.5163 107.948 90.0104 109.138C89.7723 106.817 89.9508 104.376 90.0401 103.692C90.6353 100.359 91.2306 96.8765 90.8734 96.8765C91.2604 96.7872 91.4984 100.686 91.2306 103.811Z" fill="#C9E19D"></path><path d="M85.7837 51.4891C86.0515 51.4296 87.9563 59.5546 89.2063 66.3701C89.5039 67.9773 90.4861 75.5071 90.6051 78.3047C89.2659 73.4833 88.2539 68.1261 88.0456 66.6082C87.0039 59.1975 86.0218 51.4296 85.7837 51.4891Z" fill="#C9E19D"></path><path d="M73.7593 116.996C73.7593 113.156 76.8843 110.031 80.7534 110.031C84.5927 110.031 87.7177 113.156 87.7177 116.996C87.7177 120.865 84.5927 123.96 80.7534 123.96C76.8843 123.99 73.7593 120.865 73.7593 116.996Z" fill="white"></path><path d="M73.7593 116.996C73.7593 113.156 76.8843 110.031 80.7534 110.031C84.5927 110.031 87.7177 113.156 87.7177 116.996C87.7177 120.865 84.5927 123.96 80.7534 123.96C76.8843 123.99 73.7593 120.865 73.7593 116.996ZM75.9022 117.948C75.9022 120.805 78.2831 123.216 81.1701 123.216C84.0272 123.216 86.4379 120.835 86.4379 117.948C86.4379 115.091 84.057 112.71 81.1701 112.71C78.3129 112.71 75.9022 115.091 75.9022 117.948Z" fill="#F2F8FA"></path><path d="M73.7593 116.996C73.7593 113.156 76.8843 110.031 80.7534 110.031C84.5927 110.031 87.7177 113.156 87.7177 116.996C87.7177 120.865 84.5927 123.96 80.7534 123.96C76.8843 123.99 73.7593 120.865 73.7593 116.996ZM74.4736 117.561C74.4736 120.984 77.3308 123.841 80.7534 123.841C84.176 123.841 87.0332 120.984 87.0332 117.561C87.0332 114.138 84.176 111.281 80.7534 111.281C77.3308 111.281 74.4736 114.109 74.4736 117.561Z" fill="#E5EBEE"></path><path d="M74.98 118.484C74.98 116.192 76.8252 114.347 79.1169 114.347C81.4086 114.347 83.2538 116.192 83.2538 118.484C83.2538 120.775 81.4086 122.621 79.1169 122.621C76.8252 122.591 74.98 120.746 74.98 118.484Z" fill="black"></path><path d="M75.3667 120.12C75.6048 121.132 76.3489 121.966 77.3013 122.323L77.956 120.12H75.3667Z" fill="white"></path><path d="M85.4858 117.442C85.4858 113.335 88.8192 110.031 92.8966 110.031C97.0037 110.031 100.307 113.365 100.307 117.442C100.307 121.549 96.974 124.853 92.8966 124.853C88.8192 124.882 85.4858 121.549 85.4858 117.442Z" fill="white"></path><path d="M85.4858 117.442C85.4858 113.335 88.8192 110.031 92.8966 110.031C97.0037 110.031 100.307 113.365 100.307 117.442C100.307 121.549 96.974 124.853 92.8966 124.853C88.8192 124.882 85.4858 121.549 85.4858 117.442ZM87.7775 118.454C87.7775 121.49 90.3073 124.049 93.3728 124.049C96.4085 124.049 98.968 121.519 98.968 118.454C98.968 115.418 96.4383 112.859 93.3728 112.859C90.3073 112.859 87.7775 115.418 87.7775 118.454Z" fill="#F2F8FA"></path><path d="M85.4858 117.442C85.4858 113.335 88.8192 110.031 92.8966 110.031C97.0037 110.031 100.307 113.365 100.307 117.442C100.307 121.549 96.974 124.853 92.8966 124.853C88.8192 124.882 85.4858 121.549 85.4858 117.442ZM86.2597 118.037C86.2597 121.668 89.2954 124.734 92.9561 124.734C96.5871 124.734 99.6526 121.698 99.6526 118.037C99.6526 114.376 96.6168 111.341 92.9561 111.341C89.2954 111.341 86.2597 114.376 86.2597 118.037Z" fill="#E5EBEE"></path><path d="M86.7651 119.019C86.7651 116.579 88.7294 114.615 91.1699 114.615C93.6104 114.615 95.5747 116.579 95.5747 119.019C95.5747 121.43 93.6104 123.424 91.1699 123.424C88.7294 123.394 86.7651 121.43 86.7651 119.019Z" fill="black"></path><path d="M87.1821 120.775C87.4202 121.847 88.2238 122.74 89.2357 123.126L89.95 120.775H87.1821Z" fill="white"></path><path d="M59.3545 83.8405C60.6641 87.2929 62.3307 90.2394 62.1819 89.9715C62.0034 89.7334 59.9795 86.9358 58.3129 83.7215C56.5867 80.537 55.2474 76.906 55.0688 75.9238C54.8307 74.9119 54.0867 71.1024 54.5033 67.2631C54.7712 63.394 57.0331 60.2393 57.9557 59.5547C57.5986 59.9119 55.4855 62.9178 55.5152 66.7274C55.3367 70.7453 56.6462 74.8524 56.8545 75.6857C57.0629 76.5786 57.9855 80.4179 59.3545 83.8405Z" fill="#C9E19D"></path></svg> 