<?xml version="1.0" encoding="UTF-8"?> <svg xmlns="http://www.w3.org/2000/svg" width="166" height="36" viewBox="0 0 166 36" fill="none"> <rect x="147.541" y="28.5562" width="28.5563" height="17.7395" rx="8.86977" transform="rotate(-90 147.541 28.5562)" fill="#EBFF00"></rect> <path d="M159.896 21.021C159.896 21.4981 159.803 21.8734 159.617 22.1467C159.434 22.42 159.211 22.5958 158.949 22.6742L158.754 21.8812C158.828 21.8454 158.901 21.7927 158.972 21.7233C159.046 21.6538 159.107 21.5609 159.154 21.4444C159.203 21.3279 159.228 21.1812 159.228 21.0042C159.228 20.7533 159.166 20.5461 159.043 20.3826C158.922 20.2168 158.724 20.1339 158.448 20.1339L157.739 20.1339L157.739 20.1843C157.829 20.2269 157.922 20.2918 158.018 20.3792C158.112 20.4666 158.193 20.5819 158.26 20.7253C158.325 20.8664 158.357 21.0456 158.357 21.2629C158.357 21.5497 158.289 21.8106 158.152 22.0459C158.016 22.2788 157.812 22.4648 157.541 22.6037C157.27 22.7403 156.93 22.8086 156.523 22.8086C156.111 22.8086 155.762 22.7403 155.478 22.6037C155.193 22.4648 154.977 22.2777 154.829 22.0425C154.681 21.8073 154.607 21.5452 154.607 21.2562C154.607 21.0367 154.644 20.8552 154.718 20.7119C154.792 20.5685 154.882 20.4542 154.987 20.3691C155.09 20.284 155.186 20.2179 155.276 20.1709L155.276 20.1238L154.654 20.1238L154.654 19.2602L158.472 19.2602C158.792 19.2602 159.057 19.3364 159.268 19.4887C159.479 19.6411 159.635 19.8505 159.738 20.1171C159.844 20.3814 159.896 20.6827 159.896 21.021ZM157.662 21.0143C157.662 20.732 157.561 20.5147 157.359 20.3624C157.156 20.2078 156.874 20.1305 156.516 20.1305C156.279 20.1305 156.071 20.1641 155.894 20.2313C155.717 20.2986 155.58 20.3982 155.481 20.5304C155.382 20.6626 155.333 20.8239 155.333 21.0143C155.333 21.2114 155.385 21.3761 155.488 21.5082C155.591 21.6404 155.732 21.7401 155.911 21.8073C156.088 21.8723 156.29 21.9047 156.516 21.9047C156.744 21.9047 156.945 21.8711 157.117 21.8039C157.29 21.7367 157.424 21.637 157.521 21.5049C157.615 21.3705 157.662 21.2069 157.662 21.0143ZM158.411 18.746L154.654 18.746L154.654 17.8891L155.286 17.8891L155.286 17.8488C155.067 17.7816 154.899 17.664 154.782 17.496C154.663 17.328 154.604 17.1365 154.604 16.9214C154.604 16.8744 154.606 16.8206 154.611 16.7601C154.615 16.6974 154.621 16.6459 154.628 16.6055L155.441 16.6055C155.427 16.6436 155.416 16.703 155.407 16.7836C155.398 16.8643 155.394 16.9416 155.394 17.0155C155.394 17.179 155.428 17.3246 155.498 17.4523C155.567 17.58 155.662 17.6808 155.783 17.7547C155.904 17.8264 156.046 17.8623 156.207 17.8623L158.411 17.8623L158.411 18.746ZM158.485 14.9287C158.485 15.296 158.404 15.6141 158.243 15.883C158.082 16.1518 157.856 16.3601 157.564 16.508C157.273 16.6536 156.935 16.7264 156.55 16.7264C156.162 16.7264 155.823 16.6536 155.531 16.508C155.238 16.3601 155.011 16.1518 154.849 15.883C154.688 15.6141 154.607 15.296 154.607 14.9287C154.607 14.5613 154.688 14.2432 154.849 13.9743C155.011 13.7055 155.238 13.4972 155.531 13.3493C155.823 13.2015 156.162 13.1276 156.55 13.1276C156.935 13.1276 157.273 13.2015 157.564 13.3493C157.856 13.4972 158.082 13.7055 158.243 13.9743C158.404 14.2432 158.485 14.5613 158.485 14.9287ZM157.773 14.9287C157.773 14.7248 157.719 14.5568 157.611 14.4246C157.502 14.2924 157.354 14.1939 157.168 14.1289C156.982 14.0617 156.776 14.0281 156.55 14.0281C156.319 14.0281 156.111 14.0617 155.925 14.1289C155.739 14.1939 155.592 14.2924 155.484 14.4246C155.375 14.5568 155.32 14.7248 155.32 14.9287C155.32 15.128 155.375 15.2949 155.484 15.4293C155.592 15.5637 155.739 15.6645 155.925 15.7317C156.111 15.7967 156.319 15.8292 156.55 15.8292C156.776 15.8292 156.982 15.7967 157.168 15.7317C157.354 15.6645 157.502 15.5637 157.611 15.4293C157.719 15.2949 157.773 15.128 157.773 14.9287ZM156.835 10.3855L154.654 10.3855L154.654 9.50176L158.411 9.50176L158.411 10.3586L157.742 10.3586L157.742 10.3989C157.953 10.4841 158.126 10.623 158.26 10.8156C158.394 11.0083 158.46 11.2457 158.458 11.528C158.458 11.7744 158.404 11.9917 158.297 12.1799C158.187 12.3658 158.027 12.5125 157.816 12.62C157.604 12.7253 157.347 12.778 157.047 12.778L154.654 12.778L154.654 11.8942L156.912 11.8942C157.148 11.8942 157.336 11.8293 157.477 11.6993C157.618 11.5672 157.688 11.3947 157.685 11.1819C157.685 11.0519 157.654 10.9265 157.591 10.8055C157.529 10.6823 157.434 10.5815 157.309 10.5031C157.184 10.4247 157.026 10.3855 156.835 10.3855ZM159.816 8.98415L154.654 8.98415L154.654 8.11722L155.276 8.11722L155.276 8.06345C155.186 8.01865 155.09 7.95481 154.987 7.87192C154.882 7.78904 154.792 7.67703 154.718 7.5359C154.644 7.39253 154.607 7.20996 154.607 6.98818C154.607 6.69921 154.681 6.43823 154.829 6.20525C154.977 5.97228 155.194 5.78747 155.481 5.65082C155.768 5.51193 156.121 5.44248 156.539 5.44248C156.952 5.44248 157.302 5.50969 157.591 5.6441C157.88 5.7785 158.101 5.96332 158.253 6.19853C158.403 6.43151 158.478 6.69584 158.478 6.99154C158.478 7.20436 158.442 7.38245 158.371 7.52582C158.297 7.66695 158.21 7.7812 158.109 7.86856C158.006 7.95369 157.908 8.01865 157.816 8.06345L157.816 8.10042L159.816 8.10042L159.816 8.98415ZM157.753 7.23348C157.753 7.03859 157.7 6.87618 157.595 6.74625C157.489 6.61408 157.345 6.51439 157.161 6.44719C156.977 6.37998 156.769 6.34638 156.536 6.34638C156.303 6.34638 156.096 6.37998 155.914 6.44719C155.733 6.51439 155.591 6.61296 155.488 6.74289C155.385 6.87282 155.333 7.03635 155.333 7.23348C155.333 7.42389 155.382 7.58518 155.481 7.71735C155.58 7.84728 155.72 7.94697 155.901 8.01641C156.08 8.08362 156.292 8.11722 156.536 8.11722C156.778 8.11722 156.991 8.08362 157.175 8.01641C157.356 7.94697 157.498 7.84616 157.601 7.71399C157.702 7.58182 157.753 7.42165 157.753 7.23348Z" fill="#111216"></path> <path d="M137.072 0.0185547V27.4748H131.378V0.0185547H137.072Z" fill="#111216"></path> <path d="M129.219 0.0185547V27.4748H123.525V0.0185547H129.219Z" fill="#111216"></path> <path d="M110.149 27.8596C108.847 27.8596 107.674 27.6324 106.629 27.1778C105.597 26.711 104.787 26.0231 104.197 25.114C103.607 24.2049 103.312 23.0747 103.312 21.7234C103.312 20.5687 103.521 19.6105 103.939 18.8488C104.357 18.0749 104.928 17.4484 105.653 16.9693C106.378 16.4902 107.201 16.1278 108.122 15.8821C109.043 15.6364 110.02 15.4644 111.052 15.3661C112.243 15.2556 113.202 15.145 113.926 15.0344C114.651 14.9239 115.18 14.758 115.511 14.5369C115.855 14.3035 116.027 13.9718 116.027 13.5418V13.4497C116.027 12.6021 115.757 11.9448 115.216 11.478C114.688 11.0112 113.939 10.7778 112.968 10.7778C111.949 10.7778 111.132 11.0051 110.517 11.4596C109.916 11.9018 109.516 12.4669 109.32 13.1549L104.031 12.731C104.301 11.478 104.83 10.397 105.616 9.4879C106.402 8.56654 107.416 7.86018 108.656 7.36879C109.909 6.86512 111.359 6.61328 113.005 6.61328C114.148 6.61328 115.241 6.74841 116.285 7.01868C117.329 7.28894 118.257 7.70662 119.068 8.27171C119.891 8.82452 120.542 9.54318 121.021 10.4277C121.5 11.3122 121.74 12.3625 121.74 13.5787V27.4727H116.304V24.598H116.156C115.824 25.2491 115.382 25.8204 114.829 26.3118C114.277 26.7909 113.613 27.1717 112.839 27.4542C112.065 27.7245 111.169 27.8596 110.149 27.8596ZM111.789 23.9162C112.624 23.9162 113.361 23.7504 114 23.4187C114.651 23.0748 115.155 22.6202 115.511 22.0551C115.88 21.4777 116.064 20.8328 116.064 20.1203V17.9275C115.892 18.038 115.646 18.1425 115.327 18.2407C115.02 18.339 114.676 18.425 114.295 18.4987C113.914 18.5724 113.533 18.64 113.153 18.7014C112.772 18.7505 112.428 18.7997 112.121 18.8488C111.445 18.9471 110.855 19.1068 110.352 19.3279C109.848 19.5368 109.455 19.8255 109.172 20.194C108.902 20.5502 108.767 20.9986 108.767 21.5392C108.767 22.3131 109.049 22.9028 109.615 23.3082C110.18 23.7136 110.904 23.9162 111.789 23.9162Z" fill="#111216"></path> <path d="M69.9014 6.87424V11.1862H57.5V6.87424H69.9014ZM60.3193 1.97266H66.0133V21.1368C66.0133 21.8247 66.1668 22.3345 66.474 22.6662C66.7811 22.9856 67.2725 23.1453 67.9481 23.1453C68.1692 23.1453 68.4149 23.1269 68.6852 23.09C68.9555 23.0532 69.1889 23.0102 69.3854 22.961L70.2884 27.2361C69.6618 27.4204 69.0537 27.5555 68.4641 27.6415C67.8867 27.7275 67.3155 27.7705 66.7504 27.7705C64.6988 27.7705 63.1141 27.2607 61.9962 26.241C60.8783 25.2091 60.3193 23.7595 60.3193 21.8923V1.97266Z" fill="#111216"></path> <path d="M51.458 27.4735V6.87207H57.152V27.4735H51.458Z" fill="#111216"></path> <path d="M39.2555 35.6174C36.4791 35.6174 34.3048 35.0646 32.7323 33.959C31.1599 32.8656 30.2017 31.502 29.8577 29.8682L35.1278 29.168C35.2875 29.5856 35.5394 29.9726 35.8833 30.3289C36.2273 30.6851 36.688 30.9677 37.2654 31.1765C37.8427 31.3976 38.5491 31.5082 39.3845 31.5082C40.6252 31.5082 41.651 31.2072 42.4618 30.6053C43.2726 30.0156 43.678 29.0144 43.678 27.6017V23.8241H43.4384C43.1927 24.3892 42.818 24.9297 42.3144 25.4457C41.8107 25.9617 41.1658 26.3793 40.3795 26.6987C39.5933 27.0181 38.6535 27.1778 37.5602 27.1778C36.0123 27.1778 34.6057 26.8216 33.3404 26.1091C32.0874 25.3843 31.08 24.2787 30.3184 22.7922C29.569 21.3058 29.1943 19.4262 29.1943 17.1535C29.1943 14.8072 29.5752 12.8539 30.3368 11.2937C31.1107 9.73359 32.1304 8.56655 33.3957 7.79261C34.661 7.00639 36.0492 6.61328 37.5602 6.61328C38.715 6.61328 39.6793 6.80984 40.4532 7.20295C41.2395 7.58377 41.8783 8.06287 42.3697 8.64025C42.861 9.21763 43.2296 9.78887 43.4753 10.354H43.6964V6.87126H49.3166V27.6938C49.3166 29.4382 48.8867 30.9001 48.0267 32.0794C47.1668 33.2588 45.9814 34.1433 44.4703 34.7329C42.9593 35.3226 41.221 35.6174 39.2555 35.6174ZM39.3661 22.8843C40.7419 22.8843 41.8046 22.3745 42.5539 21.3549C43.3156 20.3353 43.6964 18.9225 43.6964 17.1167C43.6964 15.9128 43.5244 14.8686 43.1804 13.9841C42.8488 13.0873 42.3635 12.3932 41.7247 11.9018C41.0859 11.3982 40.2997 11.1463 39.3661 11.1463C38.4324 11.1463 37.6401 11.4043 36.989 11.9203C36.3502 12.4239 35.8649 13.1242 35.5332 14.0209C35.2015 14.9177 35.0357 15.9496 35.0357 17.1167C35.0357 18.296 35.2015 19.3218 35.5332 20.194C35.8649 21.0539 36.3502 21.7173 36.989 22.1841C37.6401 22.6509 38.4324 22.8843 39.3661 22.8843Z" fill="#111216"></path> <path d="M22.1895 27.4735V6.87207H27.8834V27.4735H22.1895Z" fill="#111216"></path> <path d="M22.3047 3.95238V0H27.9509V3.95238H22.3047Z" fill="#111216"></path> <path d="M51.3193 3.95238V0H56.9656V3.95238H51.3193Z" fill="#111216"></path> <path d="M8.36587 27.8065C6.79343 27.8065 5.37455 27.4011 4.10923 26.5903C2.8439 25.7795 1.8427 24.5879 1.10562 23.0155C0.36854 21.4308 0 19.4959 0 17.211C0 14.8523 0.380825 12.8868 1.14248 11.3143C1.90413 9.74188 2.91761 8.56869 4.18293 7.79476C5.44826 7.00854 6.83028 6.61543 8.32901 6.61543C9.48377 6.61543 10.4481 6.81198 11.2221 7.20509C11.996 7.58592 12.6225 8.06502 13.1016 8.6424C13.5807 9.21978 13.9431 9.79102 14.1888 10.3561H14.3546V0.0185547H20.067V27.4748H14.4468V24.1764H14.1888C13.9308 24.7415 13.5561 25.3066 13.0648 25.8717C12.5734 26.4245 11.9407 26.8851 11.1668 27.2537C10.4051 27.6222 9.47149 27.8065 8.36587 27.8065ZM10.1533 23.2735C11.0746 23.2735 11.8547 23.0216 12.4935 22.5179C13.1446 22.002 13.636 21.2895 13.9677 20.3804C14.3117 19.4713 14.4836 18.4087 14.4836 17.1925C14.4836 15.9641 14.3178 14.9014 13.9861 14.0047C13.6544 13.0956 13.163 12.3954 12.5119 11.904C11.8609 11.4003 11.0746 11.1485 10.1533 11.1485C9.21965 11.1485 8.43343 11.4065 7.79463 11.9224C7.15583 12.4384 6.67058 13.1509 6.3389 14.0599C6.00721 14.9567 5.84137 16.0009 5.84137 17.1925C5.84137 18.3841 6.00721 19.4406 6.3389 20.362C6.67058 21.2711 7.15583 21.9836 7.79463 22.4995C8.44572 23.0155 9.23194 23.2735 10.1533 23.2735Z" fill="#111216"></path> <path d="M82.9607 7.17809C83.4573 5.27579 82.9603 3.16781 81.4697 1.67718C79.2334 -0.559061 75.6078 -0.55906 73.3715 1.67718C71.1353 3.91342 71.1353 7.53909 73.3715 9.77533C74.8621 11.266 76.9701 11.763 78.8724 11.2664C79.5243 11.2344 80.1868 11.4673 80.6846 11.9651C81.1825 12.463 81.4154 13.1255 81.3834 13.7773C81.1352 14.7281 81.1352 15.7303 81.3834 16.6811C81.4154 17.3329 81.1825 17.9954 80.6847 18.4932C80.1868 18.9911 79.5243 19.224 78.8724 19.192C76.9701 18.6954 74.8621 19.1924 73.3715 20.683C71.1353 22.9193 71.1353 26.545 73.3715 28.7812C75.6078 31.0174 79.2334 31.0174 81.4697 28.7812C82.9603 27.2906 83.4573 25.1826 82.9607 23.2803C82.9287 22.6284 83.1616 21.9659 83.6595 21.4681C84.1573 20.9702 84.8198 20.7373 85.4717 20.7693C86.4224 21.0175 87.4246 21.0175 88.3754 20.7693C89.0272 20.7373 89.6897 20.9702 90.1876 21.4681C90.6854 21.9659 90.9184 22.6284 90.8863 23.2803C90.3897 25.1826 90.8868 27.2906 92.3774 28.7812C94.6136 31.0174 98.2393 31.0174 100.476 28.7812C102.712 26.545 102.712 22.9193 100.476 20.683C98.9849 19.1924 96.8769 18.6954 94.9746 19.192C94.3227 19.224 93.6603 18.9911 93.1624 18.4932C92.6645 17.9954 92.4316 17.3329 92.4636 16.6811C92.7118 15.7303 92.7118 14.7281 92.4636 13.7773C92.4316 13.1255 92.6645 12.463 93.1624 11.9651C93.6603 11.4673 94.3227 11.2344 94.9746 11.2664C96.8769 11.763 98.9849 11.266 100.476 9.77533C102.712 7.53909 102.712 3.91342 100.476 1.67718C98.2393 -0.559061 94.6136 -0.55906 92.3774 1.67718C90.8868 3.16781 90.3897 5.27579 90.8864 7.1781C90.9184 7.82999 90.6854 8.49246 90.1876 8.99031C89.6897 9.48816 89.0273 9.72109 88.3754 9.68909C87.4246 9.44088 86.4224 9.44088 85.4716 9.6891C84.8198 9.72109 84.1573 9.48816 83.6595 8.99032C83.1616 8.49245 82.9287 7.82998 82.9607 7.17809Z" fill="#111216"></path> </svg> 