<?xml version="1.0" encoding="UTF-8"?> <svg xmlns="http://www.w3.org/2000/svg" width="60" height="60" viewBox="0 0 60 60" fill="none"> <circle cx="30" cy="30" r="30" fill="#9E00FF"></circle> <path fill-rule="evenodd" clip-rule="evenodd" d="M27.4897 19.611C25.4711 20.1958 23.6765 21.3733 22.3403 22.9898C21.0041 24.6062 20.1885 26.5864 20 28.6717H24.7734C25.0501 25.4986 25.9739 22.4149 27.4882 19.6095L27.4897 19.611ZM24.7734 30.5288H20C20.1881 32.6142 21.0034 34.5946 22.3393 36.2113C23.6752 37.828 25.4697 39.0059 27.4882 39.591C25.9739 36.7856 25.0501 33.702 24.7734 30.5288ZM29.8809 39.9877C28.0712 37.1315 26.9623 33.8911 26.6439 30.5288H34.1546C33.8362 33.8911 32.7273 37.1315 30.9176 39.9877C30.5722 40.0044 30.2263 40.0044 29.8809 39.9877ZM33.3118 39.5895C35.3301 39.0045 37.1244 37.8268 38.4603 36.2104C39.7962 34.594 40.6116 32.6139 40.8 30.5288H36.0266C35.7499 33.702 34.8261 36.7856 33.3118 39.591V39.5895ZM36.0266 28.6717H40.8C40.6119 26.5864 39.7966 24.6059 38.4607 22.9892C37.1248 21.3725 35.3303 20.1946 33.3118 19.6095C34.8261 22.4149 35.7499 25.4985 36.0266 28.6717ZM29.8809 19.2128C30.2268 19.196 30.5732 19.196 30.9191 19.2128C32.7283 22.0691 33.8367 25.3095 34.1546 28.6717H26.6454C26.9691 25.289 28.0804 22.0459 29.8809 19.2128Z" fill="white"></path> </svg> 