<?xml version="1.0" encoding="UTF-8"?> <svg xmlns="http://www.w3.org/2000/svg" width="60" height="60" viewBox="0 0 60 60" fill="none"> <circle cx="30" cy="30" r="30" fill="#FF006B"></circle> <path d="M28.6989 21.3162C28.9277 20.8737 28.7552 20.3299 28.3164 20.1012C27.8777 19.8724 27.3302 20.0449 27.1014 20.4837L23.6102 27.2H20.4002C19.7364 27.2 19.2002 27.7362 19.2002 28.4C19.2002 29.0637 19.7364 29.6 20.4002 29.6L22.3464 37.3812C22.6127 38.45 23.5727 39.2 24.6752 39.2H35.3252C36.4277 39.2 37.3877 38.45 37.6539 37.3812L39.6002 29.6C40.2639 29.6 40.8002 29.0637 40.8002 28.4C40.8002 27.7362 40.2639 27.2 39.6002 27.2H36.3902L32.8989 20.4837C32.6702 20.0449 32.1264 19.8724 31.6839 20.1012C31.2414 20.3299 31.0727 20.8737 31.3014 21.3162L34.3614 27.2H25.6389L28.6989 21.3162ZM26.4002 31.4V35C26.4002 35.33 26.1302 35.6 25.8002 35.6C25.4702 35.6 25.2002 35.33 25.2002 35V31.4C25.2002 31.07 25.4702 30.8 25.8002 30.8C26.1302 30.8 26.4002 31.07 26.4002 31.4ZM30.0002 30.8C30.3302 30.8 30.6002 31.07 30.6002 31.4V35C30.6002 35.33 30.3302 35.6 30.0002 35.6C29.6702 35.6 29.4002 35.33 29.4002 35V31.4C29.4002 31.07 29.6702 30.8 30.0002 30.8ZM34.8002 31.4V35C34.8002 35.33 34.5302 35.6 34.2002 35.6C33.8702 35.6 33.6002 35.33 33.6002 35V31.4C33.6002 31.07 33.8702 30.8 34.2002 30.8C34.5302 30.8 34.8002 31.07 34.8002 31.4Z" fill="white"></path> </svg> 