<?xml version="1.0" encoding="UTF-8"?> <svg xmlns="http://www.w3.org/2000/svg" width="60" height="60" viewBox="0 0 60 60" fill="none"> <circle cx="30" cy="30" r="30" fill="#001AFF"></circle> <path d="M38.5229 21.6001H22.2767C21.885 21.6001 21.5094 21.7533 21.2324 22.0261C20.9554 22.2989 20.7998 22.6689 20.7998 23.0546V36.1456C20.7998 36.5313 20.9554 36.9013 21.2324 37.1741C21.5094 37.4469 21.885 37.6001 22.2767 37.6001H38.5229C38.9146 37.6001 39.2902 37.4469 39.5672 37.1741C39.8442 36.9013 39.9998 36.5313 39.9998 36.1456V23.0546C39.9998 22.6689 39.8442 22.2989 39.5672 22.0261C39.2902 21.7533 38.9146 21.6001 38.5229 21.6001ZM27.1506 31.2001C27.3073 31.3158 27.4108 31.4881 27.4385 31.6791C27.4662 31.87 27.4158 32.064 27.2983 32.2183C27.1808 32.3726 27.0058 32.4746 26.8119 32.5019C26.618 32.5292 26.4211 32.4795 26.2644 32.3637L23.3106 30.1819C23.2189 30.1142 23.1444 30.0263 23.0932 29.9253C23.0419 29.8244 23.0152 29.713 23.0152 29.6001C23.0152 29.4872 23.0419 29.3758 23.0932 29.2749C23.1444 29.1739 23.2189 29.086 23.3106 29.0183L26.2644 26.8365C26.4211 26.7207 26.618 26.671 26.8119 26.6983C27.0058 26.7256 27.1808 26.8276 27.2983 26.9819C27.4158 27.1362 27.4662 27.3302 27.4385 27.5211C27.4108 27.7121 27.3073 27.8844 27.1506 28.0001L24.9841 29.6001L27.1506 31.2001ZM32.5866 24.7092L29.6327 34.891C29.6076 34.9845 29.5637 35.072 29.5038 35.1486C29.4438 35.2252 29.369 35.2892 29.2836 35.337C29.1982 35.3847 29.104 35.4152 29.0065 35.4267C28.9091 35.4381 28.8102 35.4303 28.7158 35.4037C28.6215 35.3771 28.5334 35.3323 28.4568 35.2718C28.3802 35.2113 28.3167 35.1363 28.2699 35.0513C28.2231 34.9663 28.1939 34.873 28.1842 34.7768C28.1744 34.6806 28.1842 34.5834 28.213 34.491L31.1669 24.3092C31.2237 24.1271 31.3507 23.9743 31.5207 23.8834C31.6906 23.7926 31.89 23.7711 32.0759 23.8235C32.2618 23.8759 32.4195 23.998 32.515 24.1636C32.6104 24.3292 32.6362 24.5251 32.5866 24.7092ZM37.489 30.1819L34.5352 32.3637C34.3785 32.4795 34.1816 32.5292 33.9877 32.5019C33.7938 32.4746 33.6189 32.3726 33.5013 32.2183C33.3838 32.064 33.3334 31.87 33.3611 31.6791C33.3888 31.4881 33.4924 31.3158 33.649 31.2001L35.8155 29.6001L33.649 28.0001C33.5715 27.9428 33.5061 27.871 33.4567 27.7888C33.4073 27.7066 33.3748 27.6157 33.3611 27.5211C33.3474 27.4266 33.3527 27.3303 33.3768 27.2378C33.4008 27.1453 33.4432 27.0583 33.5013 26.9819C33.5595 26.9055 33.6324 26.8411 33.7159 26.7925C33.7993 26.7438 33.8917 26.7118 33.9877 26.6983C34.0837 26.6848 34.1814 26.6901 34.2754 26.7138C34.3693 26.7375 34.4576 26.7792 34.5352 26.8365L37.489 29.0183C37.5808 29.086 37.6552 29.1739 37.7065 29.2749C37.7577 29.3758 37.7844 29.4872 37.7844 29.6001C37.7844 29.713 37.7577 29.8244 37.7065 29.9253C37.6552 30.0263 37.5808 30.1142 37.489 30.1819Z" fill="white"></path> </svg> 