<?xml version="1.0" encoding="UTF-8"?> <svg xmlns="http://www.w3.org/2000/svg" width="60" height="60" viewBox="0 0 60 60" fill="none"> <circle cx="30" cy="30" r="30" fill="#00E979"></circle> <path d="M22 23.3589C22 23.2698 22.025 23.1828 22.0717 23.1088C22.1185 23.0348 22.1849 22.9771 22.2626 22.9431C22.3404 22.9091 22.4259 22.9002 22.5083 22.9177C22.5908 22.9352 22.6665 22.9781 22.7259 23.0412L27.8342 28.4501C27.9413 28.5635 27.9787 28.7291 27.9617 28.8884C27.9201 29.2599 27.9889 29.6358 28.1585 29.964C28.3281 30.2922 28.59 30.5563 28.9079 30.7195C29.2258 30.8828 29.5838 30.9371 29.9322 30.875C30.2806 30.8128 30.602 30.6373 30.8518 30.3728C31.1017 30.1083 31.2674 29.7679 31.3261 29.399C31.3848 29.0301 31.3335 28.651 31.1793 28.3145C31.0251 27.9779 30.7757 27.7005 30.4658 27.521C30.1559 27.3414 29.8008 27.2685 29.45 27.3125C29.3758 27.3245 29.3001 27.3185 29.2284 27.2951C29.1567 27.2718 29.091 27.2316 29.036 27.1775L23.9277 21.7686C23.8682 21.7058 23.8277 21.6257 23.8112 21.5384C23.7946 21.4512 23.8029 21.3608 23.8349 21.2785C23.867 21.1963 23.9213 21.1259 23.991 21.0763C24.0608 21.0268 24.1429 21.0002 24.2269 21H29.6497C30.8778 20.9997 32.0878 21.3125 33.1777 21.9119C34.2675 22.5113 35.205 23.3797 35.9109 24.4438C36.6168 25.5078 37.0705 26.7361 37.2334 28.025C37.3964 29.3138 37.2639 30.6253 36.8472 31.8484L38.7511 33.8635C38.9105 34.0323 39 34.2612 39 34.4998C39 34.7385 38.9105 34.9673 38.7511 35.1361L35.3513 38.736C35.2723 38.8197 35.1786 38.8861 35.0754 38.9314C34.9722 38.9767 34.8616 39 34.7499 39C34.6382 39 34.5276 38.9767 34.4244 38.9314C34.3213 38.8861 34.2275 38.8197 34.1486 38.736L32.2455 36.721C31.0903 37.1622 29.8517 37.3025 28.6345 37.1299C27.4173 36.9574 26.2573 36.477 25.2524 35.7296C24.2475 34.9821 23.4273 33.9894 22.8612 32.8355C22.2951 31.6815 21.9997 30.4002 22 29.0999V23.3589Z" fill="white"></path> </svg> 