<?xml version="1.0" encoding="UTF-8"?> <svg xmlns="http://www.w3.org/2000/svg" width="60" height="60" viewBox="0 0 60 60" fill="none"> <circle cx="30" cy="30" r="30" fill="#FF4D00"></circle> <path d="M36.2342 28.8664C36.0132 28.8664 35.8184 29.0114 35.7551 29.2231L32.6869 39.483C32.5293 40.0099 33.2139 40.368 33.5568 39.938L41.7389 29.6781C42 29.3506 41.7668 28.8664 41.3479 28.8664H36.2342ZM24.6311 29.2231C24.5678 29.0114 24.373 28.8664 24.1521 28.8664H19.0383C18.6194 28.8664 18.3862 29.3506 18.6473 29.6781L26.8294 39.938C27.1723 40.368 27.8569 40.0099 27.6993 39.483L24.6311 29.2231ZM40.9419 27.4234C41.387 27.4234 41.6102 26.8856 41.296 26.5704L36.9492 22.2099C36.8829 22.1433 36.8041 22.0906 36.7174 22.0545C36.6308 22.0185 36.5378 22 36.444 22H34.5184C34.1696 22 33.9279 22.3483 34.0501 22.6751L35.7036 27.0985C35.7767 27.2939 35.9634 27.4234 36.172 27.4234H40.9419ZM24.2142 27.4234C24.4228 27.4234 24.6095 27.2939 24.6825 27.0985L26.3361 22.6751C26.4582 22.3483 26.2166 22 25.8677 22H23.9421C23.7527 22 23.5709 22.0755 23.4369 22.2099L19.0902 26.5704C18.776 26.8856 18.9992 27.4234 19.4443 27.4234H24.2142ZM34.1676 29.5097C34.2635 29.1889 34.0233 28.8664 33.6886 28.8664H26.6976C26.3629 28.8664 26.1227 29.1889 26.2186 29.5097L29.7141 41.1982C29.8563 41.6738 30.5299 41.6738 30.6721 41.1982L34.1676 29.5097ZM26.3497 26.7483C26.2276 27.0751 26.4692 27.4234 26.8181 27.4234H33.5681C33.917 27.4234 34.1586 27.0751 34.0365 26.7483L32.3829 22.3249C32.3099 22.1295 32.1232 22 31.9146 22H28.4716C28.263 22 28.0763 22.1295 28.0033 22.3249L26.3497 26.7483Z" fill="white"></path> </svg> 