<?xml version="1.0" encoding="UTF-8"?> <svg xmlns="http://www.w3.org/2000/svg" width="368" height="390" viewBox="0 0 368 390" fill="none"><g clip-path="url(#clip0_754_79)"><g filter="url(#filter0_ddddddd_754_79)"><path fill-rule="evenodd" clip-rule="evenodd" d="M368 0H0V390H368V0ZM271.955 21V290.326H218.084V21H271.955ZM203.584 290.326H148.954C146.299 283.139 145.919 280.113 145.161 271.413C128.468 288.056 105.326 296 81.805 296C38.5562 296 12 273.682 12 236.99C12 185.924 58.6631 179.872 97.3594 174.955C132.262 170.415 145.161 167.389 145.161 151.502C145.161 133.724 133.779 125.402 109.879 125.402C85.2194 125.402 74.9763 132.967 71.1825 155.285H20.7256C23.7606 111.784 54.8694 89.4663 111.396 89.4663C150.851 89.4663 196.756 98.5447 196.756 153.015V237.369C196.756 237.992 196.755 238.617 196.755 239.243L196.754 239.909C196.737 256.905 196.719 274.473 203.584 290.326ZM113.364 204.573L113.363 204.574L113.362 204.574C111.232 204.897 109.063 205.225 106.844 205.594C106.043 205.725 105.238 205.854 104.43 205.983C86.4953 208.856 67.3887 211.917 67.3887 234.721C67.3887 250.986 78.3906 260.821 96.98 260.821C125.054 260.821 144.781 245.312 144.781 217.32V195.381C134.296 201.4 124.344 202.909 113.364 204.573ZM347 290.326V21H293.129V290.326H347Z" fill="#F7F7F7"></path></g></g><defs><filter id="filter0_ddddddd_754_79" x="-80" y="-80" width="528" height="550" filterUnits="userSpaceOnUse" color-interpolation-filters="sRGB"><feFlood flood-opacity="0" result="BackgroundImageFix"></feFlood><feColorMatrix in="SourceAlpha" type="matrix" values="0 0 0 0 0 0 0 0 0 0 0 0 0 0 0 0 0 0 127 0" result="hardAlpha"></feColorMatrix><feOffset></feOffset><feGaussianBlur stdDeviation="40"></feGaussianBlur><feComposite in2="hardAlpha" operator="out"></feComposite><feColorMatrix type="matrix" values="0 0 0 0 1 0 0 0 0 1 0 0 0 0 1 0 0 0 0.2 0"></feColorMatrix><feBlend mode="normal" in2="BackgroundImageFix" result="effect1_dropShadow_754_79"></feBlend><feColorMatrix in="SourceAlpha" type="matrix" values="0 0 0 0 0 0 0 0 0 0 0 0 0 0 0 0 0 0 127 0" result="hardAlpha"></feColorMatrix><feOffset dx="15" dy="15"></feOffset><feGaussianBlur stdDeviation="12.5"></feGaussianBlur><feComposite in2="hardAlpha" operator="out"></feComposite><feColorMatrix type="matrix" values="0 0 0 0 0.968627 0 0 0 0 0.968627 0 0 0 0 0.968627 0 0 0 0.25 0"></feColorMatrix><feBlend mode="normal" in2="effect1_dropShadow_754_79" result="effect2_dropShadow_754_79"></feBlend><feColorMatrix in="SourceAlpha" type="matrix" values="0 0 0 0 0 0 0 0 0 0 0 0 0 0 0 0 0 0 127 0" result="hardAlpha"></feColorMatrix><feOffset dx="8" dy="5"></feOffset><feGaussianBlur stdDeviation="2.5"></feGaussianBlur><feComposite in2="hardAlpha" operator="out"></feComposite><feColorMatrix type="matrix" values="0 0 0 0 0 0 0 0 0 0 0 0 0 0 0 0 0 0 0.5 0"></feColorMatrix><feBlend mode="normal" in2="effect2_dropShadow_754_79" result="effect3_dropShadow_754_79"></feBlend><feColorMatrix in="SourceAlpha" type="matrix" values="0 0 0 0 0 0 0 0 0 0 0 0 0 0 0 0 0 0 127 0" result="hardAlpha"></feColorMatrix><feOffset dy="4"></feOffset><feGaussianBlur stdDeviation="2"></feGaussianBlur><feComposite in2="hardAlpha" operator="out"></feComposite><feColorMatrix type="matrix" values="0 0 0 0 0 0 0 0 0 0 0 0 0 0 0 0 0 0 0.5 0"></feColorMatrix><feBlend mode="normal" in2="effect3_dropShadow_754_79" result="effect4_dropShadow_754_79"></feBlend><feColorMatrix in="SourceAlpha" type="matrix" values="0 0 0 0 0 0 0 0 0 0 0 0 0 0 0 0 0 0 127 0" result="hardAlpha"></feColorMatrix><feOffset dy="4"></feOffset><feGaussianBlur stdDeviation="2"></feGaussianBlur><feComposite in2="hardAlpha" operator="out"></feComposite><feColorMatrix type="matrix" values="0 0 0 0 0 0 0 0 0 0 0 0 0 0 0 0 0 0 0.25 0"></feColorMatrix><feBlend mode="normal" in2="effect4_dropShadow_754_79" result="effect5_dropShadow_754_79"></feBlend><feColorMatrix in="SourceAlpha" type="matrix" values="0 0 0 0 0 0 0 0 0 0 0 0 0 0 0 0 0 0 127 0" result="hardAlpha"></feColorMatrix><feOffset dy="4"></feOffset><feGaussianBlur stdDeviation="2"></feGaussianBlur><feComposite in2="hardAlpha" operator="out"></feComposite><feColorMatrix type="matrix" values="0 0 0 0 0 0 0 0 0 0 0 0 0 0 0 0 0 0 0.25 0"></feColorMatrix><feBlend mode="normal" in2="effect5_dropShadow_754_79" result="effect6_dropShadow_754_79"></feBlend><feColorMatrix in="SourceAlpha" type="matrix" values="0 0 0 0 0 0 0 0 0 0 0 0 0 0 0 0 0 0 127 0" result="hardAlpha"></feColorMatrix><feOffset dy="4"></feOffset><feGaussianBlur stdDeviation="2"></feGaussianBlur><feComposite in2="hardAlpha" operator="out"></feComposite><feColorMatrix type="matrix" values="0 0 0 0 0 0 0 0 0 0 0 0 0 0 0 0 0 0 0.25 0"></feColorMatrix><feBlend mode="normal" in2="effect6_dropShadow_754_79" result="effect7_dropShadow_754_79"></feBlend><feBlend mode="normal" in="SourceGraphic" in2="effect7_dropShadow_754_79" result="shape"></feBlend></filter><clipPath id="clip0_754_79"><rect width="368" height="390" fill="white"></rect></clipPath></defs></svg> 