<?xml version="1.0" encoding="UTF-8"?> <svg xmlns="http://www.w3.org/2000/svg" width="60" height="60" viewBox="0 0 60 60" fill="none"> <circle cx="30" cy="30" r="30" fill="#EBFF00"></circle> <path d="M29.9999 27.8741C29.8093 27.5183 29.5945 27.1762 29.3571 26.8502V24.2961C29.3571 24.1242 29.4248 23.9594 29.5454 23.8379C29.6659 23.7163 29.8294 23.648 29.9999 23.648C30.1704 23.648 30.3339 23.7163 30.4545 23.8379C30.5751 23.9594 30.6428 24.1242 30.6428 24.2961V26.8502C30.4054 27.1762 30.1906 27.5183 29.9999 27.8741ZM38.4133 23.8489C38.1159 23.4617 37.5406 23 36.5088 23C35.1548 23 33.4183 23.9137 31.8634 25.4431C31.4188 25.8775 31.0106 26.3481 30.6428 26.8502V34.3407C30.6428 34.5126 30.5751 34.6775 30.4545 34.799C30.3339 34.9205 30.1704 34.9888 29.9999 34.9888C29.8294 34.9888 29.6659 34.9205 29.5454 34.799C29.4248 34.6775 29.3571 34.5126 29.3571 34.3407V26.8502C28.9903 26.3482 28.5831 25.8776 28.1397 25.4431C26.584 23.9137 24.8475 23 23.4911 23C22.4593 23 21.8839 23.4617 21.5866 23.8489C21.0386 24.5594 20.6079 25.7995 21.5697 29.6165C22.0559 31.5469 23.1375 32.2897 24.0311 32.5667C23.5438 33.3644 23.3876 34.3234 23.5963 35.2362C23.805 36.1491 24.3618 36.9424 25.1462 37.4446C25.9307 37.9468 26.8798 38.1174 27.7881 37.9196C28.6964 37.7219 29.491 37.1716 29.9999 36.3878C30.5089 37.1716 31.3034 37.7219 32.2118 37.9196C33.1201 38.1174 34.0692 37.9468 34.8536 37.4446C35.6381 36.9424 36.1949 36.1491 36.4036 35.2362C36.6123 34.3234 36.4561 33.3644 35.9688 32.5667C36.8624 32.2913 37.9432 31.5469 38.4301 29.6165C38.9701 27.4747 39.3896 25.1142 38.4133 23.8489Z" fill="black"></path> </svg> 