<?xml version="1.0" encoding="UTF-8"?> <svg xmlns="http://www.w3.org/2000/svg" width="1072" height="131" viewBox="0 0 1072 131" fill="none"> <path fill-rule="evenodd" clip-rule="evenodd" d="M217.325 117.726V90.0889H215.002C214.663 91.6726 213.889 93.1304 212.767 94.2984C211.603 95.1297 210.187 95.53 208.761 95.4306H149.247V72.6705H184.607C186.048 72.5644 187.476 72.9991 188.613 73.8897C189.774 74.9695 190.6 76.3601 190.994 77.896H193.287V50.8393H190.994C190.623 52.4298 189.819 53.8866 188.671 55.0487C187.545 55.8877 186.152 56.29 184.752 56.181H149.247V35.5981H206.177C207.641 35.484 209.096 35.9072 210.27 36.7884C211.405 37.9277 212.164 39.3862 212.447 40.9688H214.741V13.2444H212.447C212.157 14.8246 211.399 16.2812 210.27 17.4248C209.089 18.2919 207.639 18.7135 206.177 18.6151H121.32V20.9666C122.902 21.3254 124.358 22.1082 125.529 23.231C126.389 24.3494 126.812 25.7426 126.719 27.1502V103.82C126.833 105.271 126.398 106.711 125.5 107.856C124.361 108.996 122.904 109.766 121.32 110.062V112.356H208.761C210.212 112.272 211.645 112.716 212.796 113.604C213.926 114.727 214.695 116.163 215.002 117.726H217.325ZM861.809 117.726V90.0889H859.515C859.157 91.6655 858.385 93.1183 857.28 94.2984C856.119 95.1342 854.7 95.535 853.274 95.4306H800.641V27.2082C800.545 25.7778 800.956 24.3593 801.802 23.202C802.962 22.0969 804.412 21.3421 805.982 21.0247V18.6731H772.829V20.9956C774.395 21.375 775.836 22.1554 777.01 23.26C777.859 24.3824 778.272 25.7752 778.171 27.1792V103.85C778.284 105.3 777.849 106.74 776.952 107.885C775.841 109.032 774.399 109.803 772.829 110.091V112.385H853.128C854.565 112.27 855.993 112.695 857.135 113.575C858.287 114.709 859.067 116.167 859.37 117.755L861.809 117.726ZM385.471 112.356V110.062C383.864 109.69 382.389 108.887 381.204 107.74C380.394 106.588 379.995 105.197 380.071 103.791V50.6941L414.27 112.356L450.5 50.6941V103.82C450.613 105.271 450.178 106.711 449.281 107.856C448.151 109.009 446.69 109.78 445.1 110.062V112.356H478.312V110.062C476.713 109.73 475.248 108.932 474.102 107.769C473.266 106.619 472.865 105.209 472.97 103.791V27.1502C472.866 25.7233 473.266 24.3051 474.102 23.1439C475.262 22.0218 476.726 21.2647 478.312 20.9666V18.6151H439.526V20.9666C442.255 21.5762 443.649 23.0277 443.649 25.2922C443.033 28.6836 441.653 31.8904 439.613 34.6691L416.07 76.5025L392.671 34.1175C391.004 31.6139 390.005 28.7259 389.768 25.7276C389.757 24.5954 390.148 23.496 390.87 22.6245C391.593 21.7529 392.601 21.1655 393.716 20.9666V18.6151H354.118V20.9666C355.704 21.2647 357.167 22.0218 358.327 23.1439C359.184 24.2974 359.605 25.7162 359.518 27.1502V103.82C359.604 105.268 359.172 106.698 358.298 107.856C357.168 109.009 355.707 109.78 354.118 110.062V112.356H385.471ZM528.157 112.356V110.062C524.587 109.307 522.816 107.595 522.816 104.924C522.973 102.886 523.567 100.906 524.558 99.1175L529.406 88.8987H572.517L577.713 98.5079C578.919 100.459 579.645 102.667 579.832 104.953C579.832 107.856 577.974 109.394 574.404 110.033V112.327H612.521V110.033C610.643 109.741 608.878 108.949 607.412 107.74C605.591 105.575 604.041 103.196 602.796 100.656L567.32 33.4208C566.113 31.3459 565.398 29.022 565.23 26.6276C565.252 25.2907 565.713 23.9982 566.542 22.949C567.371 21.8999 568.521 21.1523 569.817 20.8214V18.4699H533.557V20.8214C536.664 22.0988 538.202 23.8987 538.202 26.1631C538.1 28.5769 537.434 30.9333 536.257 33.0434L501.914 102.514C501.04 104.586 499.801 106.484 498.256 108.117C496.901 109.211 495.256 109.887 493.524 110.062V112.356H528.157ZM550.453 45.5847L565.781 75.7768H535.676L550.453 45.5847ZM265.545 112.356V110.062C263.972 109.688 262.535 108.884 261.393 107.74C260.527 106.614 260.103 105.209 260.203 103.791V73.8607H282.673L301.369 100.685C302.76 102.277 303.702 104.211 304.098 106.288C304.098 108.001 302.646 109.191 299.714 110.062V112.356H339.051V110.062C336.623 109.595 334.355 108.516 332.461 106.927C329.576 104.1 326.997 100.976 324.768 97.6079L306.972 72.8737C316.262 70.9867 322.968 67.8804 327.119 63.6129C329.294 61.2056 330.968 58.39 332.044 55.33C333.121 52.2699 333.578 49.0264 333.39 45.7879C333.39 35.8013 329.964 28.6307 323.229 24.218C319.819 22.0336 316.01 20.544 312.023 19.8344C305.983 18.8986 299.873 18.4906 293.763 18.6151H232.246V20.9375C233.826 21.3045 235.279 22.0862 236.456 23.202C237.295 24.3284 237.697 25.7208 237.588 27.1211V103.791C237.71 105.238 237.285 106.678 236.398 107.827C235.266 108.961 233.82 109.729 232.246 110.033V112.327L265.545 112.356ZM260.203 35.5981H294.024C298.471 35.2419 302.934 36.0524 306.972 37.9496C308.239 38.8983 309.239 40.159 309.875 41.6088C310.511 43.0587 310.761 44.6484 310.601 46.2234C310.789 48.0791 310.388 49.947 309.456 51.5623C308.523 53.1776 307.105 54.4583 305.404 55.223C301.754 56.5071 297.889 57.0691 294.024 56.8777H260.058L260.203 35.5981ZM27.9567 35.5981H51.6458C56.5471 35.4672 61.4403 36.074 66.1612 37.398C69.7852 38.4934 73.0717 40.4912 75.7124 43.2042C80.8798 48.4007 83.4926 55.8616 83.4926 65.4998C83.4926 75.1381 80.8798 82.628 75.7124 87.8826C70.5449 93.1372 62.7356 95.4016 51.7619 95.4016H27.7535L27.9567 35.5981ZM1058.72 106.462C1062.71 104.191 1066.01 100.891 1068.28 96.9075C1070.55 92.9242 1071.72 88.4037 1071.64 83.8183C1071.74 78.8515 1070.38 73.965 1067.72 69.7674C1065.6 66.5022 1062.76 63.7625 1059.42 61.7549C1053.35 58.1551 1044.62 55.9487 1033.03 55.0487L1019.82 54.0327C1014.11 53.8301 1008.44 52.9134 1002.96 51.3038C1001.7 50.942 1000.6 50.1783 999.815 49.1297C999.034 48.081 998.618 46.8052 998.631 45.4976C998.631 41.3752 1001.65 38.2206 1007.69 36.0336C1012.35 34.4188 1017.27 33.6519 1022.2 33.7692C1028.58 33.8043 1034.92 34.7826 1041.02 36.6723C1046.18 37.9521 1050.99 40.3505 1055.12 43.6977C1055.72 44.2483 1056.19 44.9241 1056.5 45.6769C1056.8 46.4297 1056.94 47.2409 1056.9 48.0523L1058.9 49.1265L1070.19 27.2953L1068.19 26.2212C1067.27 27.1738 1066.07 27.805 1064.76 28.0211C1063.09 27.8136 1061.47 27.2811 1060 26.4534C1053.59 23.4044 1046.94 20.8989 1040.12 18.9635C1034.34 17.5427 1028.41 16.8215 1022.47 16.8152H1022.15C1011.71 16.4523 1001.38 19.0166 992.331 24.218C988.194 26.5618 984.774 29.9904 982.441 34.1342C980.109 38.278 978.951 42.9798 979.093 47.733C979.019 52.116 980.015 56.4508 981.996 60.3614C983.917 64.1014 986.804 67.2591 990.357 69.5061C993.391 71.3134 996.694 72.6265 1000.14 73.3962C1005.5 74.5595 1010.95 75.2972 1016.43 75.6025L1029.58 76.6767C1034.48 76.9382 1039.35 77.7067 1044.09 78.9701C1045.76 79.2767 1047.27 80.1485 1048.37 81.4387C1049.47 82.7289 1050.09 84.3587 1050.13 86.0537C1050.13 90.3212 1047.23 93.3694 1041.42 95.3145C1036.27 96.912 1030.9 97.6956 1025.51 97.637C1018.65 97.621 1011.82 96.7036 1005.19 94.9081C999.946 93.8599 994.993 91.6803 990.676 88.5213C990.135 88.0739 989.703 87.5097 989.411 86.8712C989.119 86.2326 988.976 85.5362 988.993 84.8344V84.1376L986.902 83.2957L977.264 106.259L979.354 107.072C979.665 106.507 980.112 106.028 980.654 105.678C981.197 105.328 981.817 105.119 982.461 105.069C983.239 105.12 983.999 105.327 984.696 105.678C997.552 111.558 1011.52 114.607 1025.66 114.62C1039.48 114.388 1050.6 111.746 1058.72 106.462ZM932.266 112.268V110.062C930.673 109.698 929.214 108.893 928.057 107.74C927.194 106.59 926.771 105.168 926.867 103.733V71.2479L954.678 33.0144C956.856 29.8242 959.346 26.8582 962.11 24.16C964.05 22.5618 966.353 21.4652 968.816 20.9666V18.6151H928.608L928.754 20.9666C932.266 21.9827 934.095 23.6374 934.095 25.9599C933.355 28.7201 932.006 31.2794 930.147 33.4498L916.764 52.3489L903.177 33.5079C901.299 31.3794 899.938 28.846 899.2 26.1051C899.2 23.6665 901.029 21.9536 904.658 21.0247V18.6731H862.476V20.9956C864.933 21.4883 867.228 22.5859 869.153 24.189C871.956 26.867 874.467 29.8351 876.643 33.0434L904.455 71.277V103.85C904.553 105.312 904.132 106.761 903.265 107.943C902.113 109.056 900.676 109.829 899.113 110.178V112.385L932.266 112.268ZM55.5359 112.268C62.7548 112.426 69.9619 111.606 76.9607 109.83C82.5549 108.322 87.742 105.585 92.1438 101.817C101.685 93.5726 106.466 81.4281 106.485 65.3837C106.643 57.6191 105.179 49.9069 102.188 42.7397C98.3773 33.7374 91.1995 26.5805 82.1862 22.7955C73.5476 19.6006 64.3613 18.1501 55.1585 18.528H0V20.8504C1.5635 21.2149 2.99848 21.9976 4.15141 23.1148C5.01108 24.2333 5.43418 25.6264 5.34167 27.034V103.704C5.42386 105.147 5.0032 106.573 4.15141 107.74C3.01935 108.874 1.57329 109.642 0 109.946V112.239L55.5359 112.268Z" fill="#C0C0C0"></path> <path d="M699.659 55.993C699.659 51.5636 697.541 48.5875 694.592 44.4765C692.4 41.5041 690.367 38.4176 688.502 35.2301L686.689 32.1018L684.875 35.2301C683.009 38.4139 680.981 41.5001 678.799 44.4765C675.837 48.6291 673.705 51.5912 673.719 56.0622C673.719 59.502 675.085 62.8009 677.518 65.2333C679.95 67.6656 683.249 69.0321 686.689 69.0321C690.129 69.0321 693.427 67.6656 695.86 65.2333C698.292 62.8009 699.659 59.502 699.659 56.0622V55.993Z" fill="#C0C0C0"></path> <path d="M652.187 65.1436C652.782 73.606 656.464 81.555 662.535 87.4804C668.606 93.4058 676.642 96.8948 685.116 97.2845V105.936H687.027V97.3537C686.417 88.5564 682.471 80.3238 675.996 74.3374C669.521 68.351 661.005 65.0625 652.187 65.1436V65.1436Z" fill="#C0C0C0"></path> <path d="M689.152 97.2419C697.451 96.6588 705.261 93.1059 711.154 87.2338C717.046 81.3617 720.626 73.5634 721.238 65.2671C712.94 65.8502 705.129 69.4031 699.236 75.2752C693.344 81.1473 689.764 88.9456 689.152 97.2419Z" fill="#C0C0C0"></path> <path d="M687.104 0C674.147 2.60381e-06 661.482 3.84256 650.709 11.0416C639.937 18.2407 631.542 28.4728 626.585 40.4438C621.629 52.4148 620.334 65.5868 622.865 78.2937C625.396 91.0006 631.638 102.671 640.803 111.83C649.967 120.989 661.642 127.224 674.351 129.746C687.059 132.269 700.23 130.966 712.198 126.002C724.166 121.038 734.393 112.636 741.585 101.86C748.777 91.0827 752.612 78.4149 752.604 65.4585C752.571 48.1007 745.658 31.464 733.38 19.1941C721.102 6.92417 704.461 0.0219498 687.104 0ZM687.104 127.346C674.866 127.346 662.904 123.717 652.729 116.918C642.553 110.119 634.623 100.456 629.94 89.1502C625.257 77.8443 624.032 65.4037 626.419 53.4014C628.806 41.3991 634.699 30.3743 643.352 21.7212C652.006 13.068 663.03 7.17518 675.033 4.78778C687.035 2.40038 699.476 3.62568 710.781 8.30873C722.087 12.9918 731.751 20.9223 738.549 31.0973C745.348 41.2723 748.977 53.2349 748.977 65.4723C748.959 81.8765 742.434 97.6036 730.834 109.203C719.235 120.803 703.508 127.327 687.104 127.346V127.346Z" fill="#C0C0C0"></path> </svg> 