<?xml version="1.0" encoding="UTF-8"?> <svg xmlns="http://www.w3.org/2000/svg" width="736" height="390" viewBox="0 0 736 390" fill="none"><g clip-path="url(#clip0_758_15)"><g filter="url(#filter0_dddddddd_758_15)"><path fill-rule="evenodd" clip-rule="evenodd" d="M736 0H0V390H736V0ZM223.204 294.392H171.751V269.05C158.696 289.529 138.729 299.768 111.851 299.768C84.4604 299.768 62.5737 290.297 46.1906 271.354C30.0635 252.155 22 226.556 22 194.558C22 163.328 29.8076 138.241 45.4227 119.298C61.2937 100.355 82.4125 90.884 108.779 90.884C121.066 90.884 132.586 93.4438 143.337 98.5635C154.344 103.683 162.92 111.107 169.064 120.834V21H223.204V294.392ZM170.983 194.942C170.983 175.743 166.76 160.768 158.312 150.017C150.121 139.265 138.601 133.89 123.754 133.89C108.907 133.89 97.3877 139.265 89.1962 150.017C81.0046 160.768 76.9089 175.615 76.9089 194.558C76.9089 213.757 81.0046 228.86 89.1962 239.867C97.6437 250.619 109.163 255.995 123.754 255.995C138.857 255.995 150.505 250.747 158.696 240.251C166.888 229.5 170.983 214.397 170.983 194.942ZM297.822 21V67.0774H243.297V21H297.822ZM297.822 96.2597V294.392H243.297V96.2597H297.822ZM507.786 273.658V96.2597H456.333V122.754C448.91 111.491 440.59 103.427 431.375 98.5635C422.415 93.4438 411.024 90.884 397.201 90.884C371.09 90.884 350.099 100.099 334.228 118.53C318.357 136.705 310.421 160.896 310.421 191.102C310.421 220.797 317.973 244.475 333.076 262.138C348.435 279.801 369.042 288.633 394.897 288.633C420.495 288.633 440.718 278.393 455.565 257.914L455.181 280.185C454.925 297.848 451.853 310.775 445.966 318.967C440.078 327.414 428.559 331.638 411.408 331.638C399.632 331.638 390.545 329.59 384.145 325.495C377.746 321.655 373.522 315.255 371.474 306.296H317.333C322.709 347.509 353.683 368.116 410.256 368.116C443.022 368.116 467.468 360.437 483.596 345.077C499.723 329.974 507.786 306.168 507.786 273.658ZM409.872 133.122C424.207 133.122 435.47 138.113 443.662 148.097C451.853 158.08 455.949 171.903 455.949 189.566C455.949 207.485 451.853 221.692 443.662 232.188C435.47 242.683 424.335 247.931 410.256 247.931C396.177 247.931 384.913 242.811 376.466 232.572C368.274 222.076 364.178 208.125 364.178 190.718C364.178 172.543 368.146 158.464 376.082 148.481C384.273 138.241 395.537 133.122 409.872 133.122ZM585.476 21V67.0774H530.951V21H585.476ZM585.476 96.2597V294.392H530.951V96.2597H585.476ZM714.42 133.122V96.2597H674.103V36.3591H619.962V96.2597H586.94V133.122H619.962V236.028C619.962 259.834 624.185 275.961 632.633 284.409C641.336 292.6 657.592 296.696 681.398 296.696C690.102 296.696 701.109 296.184 714.42 295.16V253.691C710.069 254.203 704.565 254.459 697.909 254.459C692.022 254.459 687.414 254.075 684.086 253.307C681.014 252.283 678.71 250.363 677.174 247.547C675.639 244.731 674.743 242.043 674.487 239.483C674.231 236.668 674.103 232.316 674.103 226.428V133.122H714.42Z" fill="#F7F7F7"></path></g></g><defs><filter id="filter0_dddddddd_758_15" x="-80" y="-80" width="896" height="550" filterUnits="userSpaceOnUse" color-interpolation-filters="sRGB"><feFlood flood-opacity="0" result="BackgroundImageFix"></feFlood><feColorMatrix in="SourceAlpha" type="matrix" values="0 0 0 0 0 0 0 0 0 0 0 0 0 0 0 0 0 0 127 0" result="hardAlpha"></feColorMatrix><feOffset></feOffset><feGaussianBlur stdDeviation="40"></feGaussianBlur><feComposite in2="hardAlpha" operator="out"></feComposite><feColorMatrix type="matrix" values="0 0 0 0 1 0 0 0 0 1 0 0 0 0 1 0 0 0 0.2 0"></feColorMatrix><feBlend mode="normal" in2="BackgroundImageFix" result="effect1_dropShadow_758_15"></feBlend><feColorMatrix in="SourceAlpha" type="matrix" values="0 0 0 0 0 0 0 0 0 0 0 0 0 0 0 0 0 0 127 0" result="hardAlpha"></feColorMatrix><feOffset dx="15" dy="15"></feOffset><feGaussianBlur stdDeviation="12.5"></feGaussianBlur><feComposite in2="hardAlpha" operator="out"></feComposite><feColorMatrix type="matrix" values="0 0 0 0 0.968627 0 0 0 0 0.968627 0 0 0 0 0.968627 0 0 0 0.25 0"></feColorMatrix><feBlend mode="normal" in2="effect1_dropShadow_758_15" result="effect2_dropShadow_758_15"></feBlend><feColorMatrix in="SourceAlpha" type="matrix" values="0 0 0 0 0 0 0 0 0 0 0 0 0 0 0 0 0 0 127 0" result="hardAlpha"></feColorMatrix><feOffset dx="8" dy="5"></feOffset><feGaussianBlur stdDeviation="2.5"></feGaussianBlur><feComposite in2="hardAlpha" operator="out"></feComposite><feColorMatrix type="matrix" values="0 0 0 0 0 0 0 0 0 0 0 0 0 0 0 0 0 0 0.5 0"></feColorMatrix><feBlend mode="normal" in2="effect2_dropShadow_758_15" result="effect3_dropShadow_758_15"></feBlend><feColorMatrix in="SourceAlpha" type="matrix" values="0 0 0 0 0 0 0 0 0 0 0 0 0 0 0 0 0 0 127 0" result="hardAlpha"></feColorMatrix><feOffset dy="4"></feOffset><feGaussianBlur stdDeviation="2"></feGaussianBlur><feComposite in2="hardAlpha" operator="out"></feComposite><feColorMatrix type="matrix" values="0 0 0 0 0 0 0 0 0 0 0 0 0 0 0 0 0 0 0.5 0"></feColorMatrix><feBlend mode="normal" in2="effect3_dropShadow_758_15" result="effect4_dropShadow_758_15"></feBlend><feColorMatrix in="SourceAlpha" type="matrix" values="0 0 0 0 0 0 0 0 0 0 0 0 0 0 0 0 0 0 127 0" result="hardAlpha"></feColorMatrix><feOffset dy="4"></feOffset><feGaussianBlur stdDeviation="2"></feGaussianBlur><feComposite in2="hardAlpha" operator="out"></feComposite><feColorMatrix type="matrix" values="0 0 0 0 0 0 0 0 0 0 0 0 0 0 0 0 0 0 0.25 0"></feColorMatrix><feBlend mode="normal" in2="effect4_dropShadow_758_15" result="effect5_dropShadow_758_15"></feBlend><feColorMatrix in="SourceAlpha" type="matrix" values="0 0 0 0 0 0 0 0 0 0 0 0 0 0 0 0 0 0 127 0" result="hardAlpha"></feColorMatrix><feOffset dy="4"></feOffset><feGaussianBlur stdDeviation="2"></feGaussianBlur><feComposite in2="hardAlpha" operator="out"></feComposite><feColorMatrix type="matrix" values="0 0 0 0 0 0 0 0 0 0 0 0 0 0 0 0 0 0 0.25 0"></feColorMatrix><feBlend mode="normal" in2="effect5_dropShadow_758_15" result="effect6_dropShadow_758_15"></feBlend><feColorMatrix in="SourceAlpha" type="matrix" values="0 0 0 0 0 0 0 0 0 0 0 0 0 0 0 0 0 0 127 0" result="hardAlpha"></feColorMatrix><feOffset dy="4"></feOffset><feGaussianBlur stdDeviation="2"></feGaussianBlur><feComposite in2="hardAlpha" operator="out"></feComposite><feColorMatrix type="matrix" values="0 0 0 0 0 0 0 0 0 0 0 0 0 0 0 0 0 0 0.25 0"></feColorMatrix><feBlend mode="normal" in2="effect6_dropShadow_758_15" result="effect7_dropShadow_758_15"></feBlend><feColorMatrix in="SourceAlpha" type="matrix" values="0 0 0 0 0 0 0 0 0 0 0 0 0 0 0 0 0 0 127 0" result="hardAlpha"></feColorMatrix><feOffset dy="4"></feOffset><feGaussianBlur stdDeviation="2"></feGaussianBlur><feComposite in2="hardAlpha" operator="out"></feComposite><feColorMatrix type="matrix" values="0 0 0 0 0 0 0 0 0 0 0 0 0 0 0 0 0 0 0.25 0"></feColorMatrix><feBlend mode="normal" in2="effect7_dropShadow_758_15" result="effect8_dropShadow_758_15"></feBlend><feBlend mode="normal" in="SourceGraphic" in2="effect8_dropShadow_758_15" result="shape"></feBlend></filter><clipPath id="clip0_758_15"><rect width="736" height="390" fill="white"></rect></clipPath></defs></svg> 