<?xml version="1.0" encoding="UTF-8"?> <svg xmlns="http://www.w3.org/2000/svg" width="122" height="113" viewBox="0 0 122 113" fill="none"><path d="M68.1114 0C64.0665 7.03017 62.9704 15.3848 65.0642 23.2259C67.158 31.067 72.2701 37.7524 79.276 41.8113C86.2819 45.8701 94.6077 46.97 102.422 44.869C110.236 42.768 116.898 37.6381 120.943 30.608L109.578 24.0234C107.273 28.0289 103.477 30.9516 99.0251 32.1487C94.573 33.3457 89.8294 32.7191 85.8378 30.4065C81.8462 28.094 78.9335 24.285 77.7406 19.8175C76.5477 15.35 77.1722 10.59 79.4767 6.58453L68.1114 0Z" fill="white"></path><path d="M54.1609 0C58.2058 7.03017 59.3019 15.3848 57.2081 23.2259C55.1144 31.067 50.0022 37.7524 42.9963 41.8113C35.9904 45.8701 27.6646 46.97 19.8506 44.869C12.0365 42.768 5.37424 37.6381 1.32939 30.608L12.6948 24.0234C14.9993 28.0289 18.7952 30.9516 23.2472 32.1487C27.6993 33.3457 32.4429 32.7191 36.4345 30.4065C40.4261 28.094 43.3388 24.285 44.5317 19.8175C45.7246 15.35 45.1001 10.59 42.7956 6.58453L54.1609 0Z" fill="white"></path><path d="M121.65 45.0735C113.836 42.9725 105.51 44.0724 98.5042 48.1312C91.4983 52.1901 86.3861 58.8755 84.2924 66.7166C82.1986 74.5577 83.2947 82.9123 87.3396 89.9425C91.3844 96.9727 98.0467 102.103 105.861 104.204L109.257 91.4832C104.805 90.2861 101.01 87.3634 98.7049 83.358C96.4004 79.3525 95.7759 74.5925 96.9688 70.125C98.1617 65.6575 101.074 61.8485 105.066 59.536C109.058 57.2234 113.801 56.5968 118.253 57.7938L121.65 45.0735Z" fill="white"></path><path d="M92.0795 112.321C92.0795 104.203 88.8659 96.4178 83.1456 90.6777C77.4253 84.9376 69.6669 81.7128 61.5772 81.7128C53.4875 81.7128 45.7291 84.9376 40.0088 90.6777C34.2885 96.4178 31.0749 104.203 31.0749 112.321H44.1985C44.1985 107.696 46.0294 103.26 49.2886 99.9896C52.5477 96.7192 56.9681 94.8819 61.5772 94.8819C66.1863 94.8819 70.6066 96.7192 73.8658 99.9896C77.1249 103.26 78.9559 107.696 78.9559 112.321H92.0795Z" fill="white"></path><path d="M0.62207 45.0735C8.43613 42.9725 16.7619 44.0724 23.7678 48.1312C30.7737 52.1901 35.8858 58.8755 37.9796 66.7166C40.0734 74.5577 38.9773 82.9123 34.9324 89.9425C30.8876 96.9727 24.2253 102.103 16.4112 104.204L13.0146 91.4832C17.4667 90.2861 21.2625 87.3634 23.567 83.358C25.8716 79.3525 26.4961 74.5925 25.3032 70.125C24.1103 65.6575 21.1976 61.8485 17.206 59.536C13.2144 57.2234 8.47078 56.5968 4.01871 57.7938L0.62207 45.0735Z" fill="white"></path></svg> 