<?xml version="1.0" encoding="UTF-8"?> <svg xmlns="http://www.w3.org/2000/svg" width="167" height="207" viewBox="0 0 167 207" fill="none"> <path d="M106.516 88.7646C103.307 87.1599 99.868 86.3575 96.3146 86.3575H89.3224V17.5818C89.3224 8.06783 81.6425 0.387878 72.1285 0.387878C62.6145 0.387878 54.9346 8.06783 54.9346 17.5818V140.69L15.5032 132.437C11.262 131.52 6.7916 132.896 3.69669 135.991C-1.23223 141.034 -1.23223 149.058 3.69669 154.102L49.6618 200.067C54.0176 204.308 59.8635 206.715 65.9387 206.715H135.861C147.323 206.715 156.952 198.347 158.557 186.999L165.778 135.761C167.154 126.018 162.11 116.39 153.284 112.034L106.516 88.7646Z" fill="#D2D2D2"></path> </svg> 