<?xml version="1.0" encoding="UTF-8"?> <svg xmlns="http://www.w3.org/2000/svg" width="473" height="131" viewBox="0 0 473 131" fill="none"> <path d="M122.307 84.2792V122.257H8.67617V8.74266H122.307V47.9797H130.983V0H0V131H130.983V84.2792H122.307Z" fill="#C0C0C0"></path> <path d="M46.0049 88.8369V43.9133H55.5029V62.4487H74.784V43.9133H84.2601V88.8369H74.784V70.2796H55.5029V88.8369H46.0049Z" fill="#C0C0C0"></path> <path d="M162.763 50.994V43.1631H199.658V50.994H185.904V88.0866H176.516V50.994H162.763Z" fill="#C0C0C0"></path> <path d="M215.622 88.0866V43.1631H247.306V50.994H225.12V61.6984H246.456V69.5293H225.12V80.2557H248.101V88.0866H215.622Z" fill="#C0C0C0"></path> <path d="M266.52 88.0866V43.1631H276.018V80.2557H298.105V88.0866H266.52Z" fill="#C0C0C0"></path> <path d="M114.399 85.0495C110.761 83.0911 107.962 80.4333 105.863 77.0062C103.834 73.5791 102.784 69.7323 102.784 65.4659C102.784 61.1995 103.834 57.3527 105.863 53.9256C107.892 50.4985 110.761 47.8407 114.399 45.8823C118.038 43.924 122.096 42.9448 126.644 42.9448C131.192 42.9448 135.25 43.924 138.819 45.8823C142.457 47.8407 145.256 50.4985 147.355 53.9256C149.454 57.3527 150.434 61.1995 150.434 65.4659C150.434 69.7323 149.384 73.5791 147.355 77.0062C145.256 80.4333 142.457 83.0911 138.819 85.0495C135.18 87.0078 131.122 87.987 126.644 87.987C122.096 87.987 118.038 87.0078 114.399 85.0495ZM133.571 77.6357C135.67 76.4467 137.279 74.838 138.469 72.6699C139.658 70.5716 140.218 68.1237 140.218 65.4659C140.218 62.8081 139.658 60.3602 138.469 58.2619C137.279 56.1637 135.67 54.4851 133.571 53.2961C131.472 52.1071 129.163 51.5476 126.574 51.5476C123.985 51.5476 121.676 52.1071 119.577 53.2961C117.478 54.4851 115.869 56.0938 114.679 58.2619C113.49 60.3602 112.93 62.8081 112.93 65.4659C112.93 68.1237 113.49 70.5716 114.679 72.6699C115.869 74.7681 117.478 76.4467 119.577 77.6357C121.676 78.8247 123.985 79.3842 126.574 79.3842C129.163 79.3842 131.542 78.8247 133.571 77.6357Z" fill="#C0C0C0"></path> <path d="M313.103 88.3474V43.1135H318.737V83.4883H340.365V88.3474H313.103Z" fill="#C0C0C0"></path> <path d="M364.319 43.1135V88.3474H358.685V43.1135H364.319Z" fill="#C0C0C0"></path> <path d="M422.107 43.1135V88.3474H416.655L391.301 52.8317H390.846V88.3474H385.212V43.1135H390.665L416.109 78.7175H416.564V43.1135H422.107Z" fill="#C0C0C0"></path> <path d="M442.977 88.3474V43.1135H471.057V47.9726H448.612V63.2567H469.603V68.1158H448.612V83.4883H471.421V88.3474H442.977Z" fill="#C0C0C0"></path> <path fill-rule="evenodd" clip-rule="evenodd" d="M472.128 101.069H162.559V130.754H472.128V101.069ZM196.023 121.584C197.436 122.75 199.463 123.333 202.101 123.333C203.856 123.333 205.346 123.068 206.572 122.538C207.797 122.008 208.721 121.248 209.346 120.258C209.982 119.257 210.3 118.056 210.3 116.654C210.3 115.264 209.982 114.074 209.346 113.085C208.721 112.083 207.797 111.323 206.572 110.805C205.346 110.275 203.856 110.01 202.101 110.01C199.463 110.01 197.436 110.593 196.023 111.759C194.609 112.914 193.903 114.545 193.903 116.654C193.903 118.774 194.609 120.417 196.023 121.584ZM206.483 116.654C206.483 119.033 205.023 120.223 202.101 120.223C199.192 120.223 197.737 119.033 197.737 116.654C197.737 114.298 199.192 113.12 202.101 113.12C205.023 113.12 206.483 114.298 206.483 116.654ZM186.488 110.363V115.116H178.042V110.363H174.384V122.979H178.042V118.226H186.488V122.979H190.145V110.363H186.488ZM217.518 118.845C217.518 119.41 217.848 119.846 218.508 120.152C219.179 120.447 220.304 120.594 221.883 120.594C223.32 120.594 224.309 120.488 224.851 120.276C225.393 120.064 225.664 119.746 225.664 119.322C225.664 119.004 225.564 118.768 225.364 118.615C225.163 118.462 224.775 118.344 224.197 118.262C223.62 118.167 222.672 118.079 221.353 117.997C219.597 117.879 218.184 117.673 217.112 117.378C216.052 117.072 215.263 116.636 214.744 116.071C214.238 115.505 213.984 114.757 213.984 113.827C213.984 112.554 214.621 111.6 215.893 110.964C217.165 110.328 218.932 110.01 221.194 110.01C223.644 110.01 225.534 110.375 226.866 111.106C228.208 111.836 228.903 112.896 228.951 114.286H225.134C225.134 113.732 224.816 113.338 224.18 113.102C223.544 112.867 222.513 112.749 221.088 112.749C219.827 112.749 218.961 112.843 218.49 113.031C218.031 113.22 217.801 113.503 217.801 113.88C217.801 114.151 217.901 114.363 218.101 114.516C218.302 114.669 218.679 114.798 219.232 114.904C219.798 114.999 220.664 115.093 221.83 115.187C223.714 115.329 225.157 115.499 226.159 115.7C227.172 115.9 227.979 116.265 228.579 116.795C229.18 117.325 229.481 118.114 229.481 119.163C229.481 120.694 228.839 121.772 227.555 122.396C226.282 123.021 224.433 123.333 222.006 123.333C219.332 123.333 217.295 122.985 215.893 122.29C214.503 121.595 213.767 120.447 213.684 118.845H217.518ZM246.798 111.618C245.903 110.782 244.689 110.363 243.158 110.363H233.245V122.979H236.903V119.746H243.158C244.689 119.746 245.903 119.334 246.798 118.509C247.693 117.673 248.141 116.518 248.141 115.046C248.141 113.585 247.693 112.443 246.798 111.618ZM243.264 116.565C242.981 116.613 242.61 116.636 242.151 116.636H236.903V113.473H242.151C242.61 113.473 242.981 113.503 243.264 113.562C243.559 113.609 243.806 113.75 244.006 113.986C244.218 114.209 244.324 114.563 244.324 115.046C244.324 115.541 244.218 115.906 244.006 116.141C243.806 116.365 243.559 116.506 243.264 116.565ZM251.888 110.363H255.546V122.979H251.888V110.363ZM274.437 113.473V110.363H259.242V113.473H265.02V122.979H268.677V113.473H274.437ZM292.439 122.979H288.517L287.315 120.594H279.541L278.339 122.979H274.399L280.901 110.363H285.955L292.439 122.979ZM283.428 112.925L280.936 117.855H285.919L283.428 112.925ZM308.193 119.87H299.447V110.363H295.789V122.979H308.193V119.87ZM311.999 110.363H315.656V122.979H311.999V110.363ZM334.548 113.473V110.363H319.352V113.473H325.13V122.979H328.788V113.473H334.548ZM346.624 115.735L350.936 110.363H355.53L348.48 118.792V122.979H344.787V118.792L337.719 110.363H342.313L346.624 115.735ZM369.092 113.049C368.432 114.05 368.102 115.252 368.102 116.654C368.102 118.067 368.438 119.275 369.109 120.276C369.792 121.277 370.753 122.037 371.989 122.555C373.238 123.074 374.693 123.333 376.354 123.333C377.685 123.333 378.916 123.203 380.047 122.944C381.178 122.673 382.361 122.19 383.598 121.495V116.106H376.036V118.491H380.506V119.693C379.882 119.964 379.269 120.164 378.668 120.294C378.068 120.411 377.361 120.47 376.548 120.47C374.828 120.47 373.627 120.123 372.944 119.428C372.272 118.721 371.936 117.838 371.936 116.777C371.936 115.753 372.254 114.887 372.891 114.18C373.538 113.473 374.61 113.12 376.106 113.12C377.178 113.12 378.015 113.297 378.615 113.65C379.216 113.992 379.581 114.427 379.711 114.957H383.598C383.516 114.003 383.162 113.155 382.538 112.413C381.914 111.659 381.048 111.07 379.941 110.646C378.833 110.222 377.549 110.01 376.089 110.01C374.498 110.01 373.103 110.269 371.901 110.787C370.7 111.294 369.763 112.048 369.092 113.049ZM400.088 117.82C400.783 117.891 401.319 118.132 401.696 118.544C402.073 118.945 402.261 119.499 402.261 120.205V122.979H398.621V120.894C398.621 120.482 398.58 120.176 398.498 119.976C398.415 119.764 398.268 119.616 398.056 119.534C397.844 119.44 397.526 119.393 397.102 119.393H391.2V122.979H387.543V110.363H397.226C398.886 110.363 400.153 110.699 401.024 111.371C401.896 112.03 402.332 113.02 402.332 114.339C402.332 116.106 401.584 117.266 400.088 117.82ZM391.2 113.35V116.406H396.324C396.819 116.406 397.208 116.383 397.491 116.336C397.773 116.289 398.009 116.153 398.197 115.929C398.398 115.705 398.498 115.358 398.498 114.887C398.498 114.404 398.398 114.056 398.197 113.844C398.009 113.62 397.773 113.485 397.491 113.438C397.208 113.379 396.819 113.35 396.324 113.35H391.2ZM408.025 121.584C409.439 122.75 411.465 123.333 414.104 123.333C415.859 123.333 417.349 123.068 418.574 122.538C419.799 122.008 420.724 121.248 421.348 120.258C421.984 119.257 422.302 118.056 422.302 116.654C422.302 115.264 421.984 114.074 421.348 113.085C420.724 112.083 419.799 111.323 418.574 110.805C417.349 110.275 415.859 110.01 414.104 110.01C411.465 110.01 409.439 110.593 408.025 111.759C406.612 112.914 405.905 114.545 405.905 116.654C405.905 118.774 406.612 120.417 408.025 121.584ZM418.486 116.654C418.486 119.033 417.025 120.223 414.104 120.223C411.194 120.223 409.739 119.033 409.739 116.654C409.739 114.298 411.194 113.12 414.104 113.12C417.025 113.12 418.486 114.298 418.486 116.654ZM441.602 116.83C441.602 119.01 440.972 120.641 439.712 121.725C438.463 122.797 436.502 123.333 433.828 123.333C431.142 123.333 429.175 122.797 427.926 121.725C426.677 120.653 426.053 119.021 426.053 116.83V110.363H429.711V116.707C429.711 117.743 429.999 118.591 430.577 119.251C431.154 119.899 432.237 120.223 433.828 120.223C435.418 120.223 436.502 119.893 437.079 119.233C437.668 118.574 437.962 117.732 437.962 116.707V110.363H441.602V116.83ZM459.146 111.618C458.25 110.782 457.037 110.363 455.506 110.363H445.593V122.979H449.251V119.746H455.506C457.037 119.746 458.25 119.334 459.146 118.509C460.041 117.673 460.488 116.518 460.488 115.046C460.488 113.585 460.041 112.443 459.146 111.618ZM455.612 116.565C455.329 116.613 454.958 116.636 454.499 116.636H449.251V113.473H454.499C454.958 113.473 455.329 113.503 455.612 113.562C455.906 113.609 456.154 113.75 456.354 113.986C456.566 114.209 456.672 114.563 456.672 115.046C456.672 115.541 456.566 115.906 456.354 116.141C456.154 116.365 455.906 116.506 455.612 116.565Z" fill="#C0C0C0"></path> </svg> 