<?xml version="1.0" encoding="UTF-8"?> <svg xmlns="http://www.w3.org/2000/svg" width="429" height="131" viewBox="0 0 429 131" fill="none"> <path d="M167.264 32.3748L154.993 16.7287H150.688V48.9188H155.681V25.4834L167.264 40.1866L178.87 25.4834V48.9188H183.863V16.7287H179.536L167.264 32.3748Z" fill="#C0C0C0"></path> <path d="M205.202 32.8238C205.202 29.5015 206.334 26.6731 208.62 24.361C210.905 22.0489 213.701 20.8816 217.008 20.8816C220.314 20.8816 223.11 22.0489 225.396 24.361C227.682 26.6731 228.836 29.5015 228.836 32.8238C228.836 36.1685 227.682 38.9969 225.396 41.309C223.11 43.6436 220.314 44.7884 217.008 44.7884C213.701 44.7884 210.905 43.6436 208.62 41.309C206.334 38.9969 205.202 36.1685 205.202 32.8238ZM200.209 32.8238C200.209 37.448 201.807 41.3764 205.047 44.5639C208.265 47.774 212.259 49.3678 217.008 49.3678C221.757 49.3678 225.751 47.774 228.969 44.5639C232.209 41.3764 233.806 37.448 233.806 32.8238C233.806 28.1995 232.209 24.2936 228.969 21.0836C225.751 17.896 221.757 16.2798 217.008 16.2798C212.259 16.2798 208.265 17.896 205.047 21.0836C201.807 24.2936 200.209 28.1995 200.209 32.8238Z" fill="#C0C0C0"></path> <path d="M244.76 16.7287V21.3305H254.302V48.9188H259.295V21.3305H268.837V16.7287H244.76Z" fill="#C0C0C0"></path> <path d="M284.761 32.8238C284.761 29.5015 285.893 26.6731 288.179 24.361C290.464 22.0489 293.26 20.8816 296.567 20.8816C299.873 20.8816 302.669 22.0489 304.955 24.361C307.241 26.6731 308.395 29.5015 308.395 32.8238C308.395 36.1685 307.241 38.9969 304.955 41.309C302.669 43.6436 299.873 44.7884 296.567 44.7884C293.26 44.7884 290.464 43.6436 288.179 41.309C285.893 38.9969 284.761 36.1685 284.761 32.8238ZM279.768 32.8238C279.768 37.448 281.366 41.3764 284.606 44.5639C287.824 47.774 291.818 49.3678 296.567 49.3678C301.316 49.3678 305.31 47.774 308.528 44.5639C311.768 41.3764 313.366 37.448 313.366 32.8238C313.366 28.1995 311.768 24.2936 308.528 21.0836C305.31 17.896 301.316 16.2798 296.567 16.2798C291.818 16.2798 287.824 17.896 284.606 21.0836C281.366 24.2936 279.768 28.1995 279.768 32.8238Z" fill="#C0C0C0"></path> <path d="M150.568 82.5891V87.1909H160.11V114.779H165.103V87.1909H174.646V82.5891H150.568Z" fill="#C0C0C0"></path> <path d="M190.57 98.6842C190.57 95.3619 191.702 92.5335 193.987 90.2214C196.273 87.9093 199.069 86.742 202.375 86.742C205.682 86.742 208.478 87.9093 210.764 90.2214C213.049 92.5335 214.203 95.3619 214.203 98.6842C214.203 102.029 213.049 104.857 210.764 107.169C208.478 109.504 205.682 110.649 202.375 110.649C199.069 110.649 196.273 109.504 193.987 107.169C191.702 104.857 190.57 102.029 190.57 98.6842ZM185.577 98.6842C185.577 103.308 187.175 107.237 190.415 110.424C193.632 113.634 197.627 115.228 202.375 115.228C207.124 115.228 211.119 113.634 214.336 110.424C217.576 107.237 219.174 103.308 219.174 98.6842C219.174 94.0599 217.576 90.154 214.336 86.944C211.119 83.7564 207.124 82.1402 202.375 82.1402C197.627 82.1402 193.632 83.7564 190.415 86.944C187.175 90.154 185.577 94.0599 185.577 98.6842Z" fill="#C0C0C0"></path> <path d="M248.524 110.649C246.26 110.649 244.285 109.796 242.621 108.09C240.957 106.384 240.136 104.319 240.136 101.917V82.5891H235.12V101.917C235.12 105.598 236.408 108.718 239.026 111.322C241.645 113.926 244.796 115.228 248.524 115.228C252.252 115.228 255.403 113.949 258.022 111.345C260.64 108.741 261.949 105.598 261.949 101.917V82.5891H256.934V101.917C256.934 104.296 256.091 106.361 254.427 108.067C252.762 109.796 250.787 110.649 248.524 110.649Z" fill="#C0C0C0"></path> <path d="M274.19 114.779H279.405L282.822 106.272H296.914L300.331 114.779H305.546L292.364 82.5891H287.371L274.19 114.779ZM289.879 88.3358L295.094 101.67H284.642L289.879 88.3358Z" fill="#C0C0C0"></path> <path d="M320.116 114.779H325.109V102.366H332.388L339.201 114.779H344.66L337.381 101.917L338.025 101.625C338.468 101.445 339.001 101.109 339.622 100.615C340.244 100.121 340.865 99.5596 341.486 98.8862C342.108 98.2352 342.64 97.3373 343.084 96.1925C343.528 95.0476 343.75 93.813 343.75 92.4886C343.75 89.7051 342.773 87.3481 340.843 85.44C338.89 83.5544 336.449 82.5891 333.52 82.5891H320.116V114.779ZM338.735 92.4886C338.735 93.9926 338.224 95.2497 337.226 96.2598C336.227 97.27 334.984 97.7638 333.52 97.7638H325.109V87.1909H333.52C334.984 87.1909 336.227 87.7072 337.226 88.7174C338.224 89.7275 338.735 90.9846 338.735 92.4886Z" fill="#C0C0C0"></path> <path d="M366.021 110.177V100.3H379.89V95.6986H366.021V87.1909H383.529V82.5891H361.028V114.779H383.973V110.177H366.021Z" fill="#C0C0C0"></path> <path d="M417.384 97.7638V102.366H423.531V107.416L423.198 107.753C422.976 107.978 422.643 108.247 422.155 108.561C421.667 108.875 421.112 109.212 420.469 109.526C419.847 109.841 419.026 110.11 418.028 110.335C417.029 110.559 415.986 110.649 414.876 110.649C411.57 110.649 408.774 109.504 406.488 107.169C404.203 104.857 403.049 102.029 403.049 98.6842C403.049 95.3619 404.203 92.5335 406.488 90.2214C408.796 87.9093 411.592 86.742 414.876 86.742C416.119 86.742 417.317 86.9216 418.427 87.2807C419.536 87.6399 420.446 88.0215 421.134 88.4256C421.844 88.8296 422.488 89.3235 423.087 89.8847C423.708 90.4683 424.086 90.8499 424.263 91.0744C424.441 91.2989 424.552 91.456 424.64 91.5682L427.814 88.3358L427.326 87.7072C426.993 87.2807 426.46 86.7644 425.728 86.1583C425.018 85.5747 424.174 84.9686 423.198 84.3401C422.222 83.734 421.001 83.2177 419.514 82.7912C418.05 82.3647 416.496 82.1402 414.876 82.1402C410.127 82.1402 406.133 83.7564 402.893 86.944C399.676 90.154 398.056 94.0599 398.056 98.6842C398.056 103.308 399.676 107.237 402.893 110.424C406.133 113.634 410.127 115.228 414.876 115.228C416.563 115.228 418.205 115.026 419.781 114.6C421.356 114.173 422.621 113.702 423.597 113.185C424.574 112.669 425.484 112.063 426.327 111.367C427.17 110.671 427.725 110.177 427.969 109.908C428.213 109.639 428.391 109.414 428.502 109.257V97.7638H417.384Z" fill="#C0C0C0"></path> <path d="M88.994 28.5994C88.994 35.1472 88.8681 41.5692 88.994 48.117C89.1199 53.1538 86.9793 56.4277 81.8166 56.5536C77.1575 56.6796 74.3873 54.0352 74.1354 49.2503C73.7577 44.4653 72.3726 40.3099 66.4543 40.5618C59.2769 40.6877 52.4772 45.8504 52.0994 51.1391C51.9735 53.4056 52.3513 55.7981 51.9735 58.0647C51.218 64.7385 53.8623 68.3901 60.2842 70.6567C74.7651 75.8194 83.7054 86.3967 87.8607 101.129C89.2459 106.04 88.4903 110.07 83.3276 111.958C78.7945 113.721 75.3946 110.951 73.1281 105.411C70.9874 100.374 68.0913 95.337 64.6914 91.0557C63.3063 89.2929 59.025 88.0337 57.0103 88.9151C54.7438 89.9225 52.4772 93.4482 52.3513 95.9666C51.7217 104.529 52.2254 113.218 52.0994 121.78C52.0994 127.824 49.0774 131.35 44.2924 130.972C38.8778 130.595 36.8631 127.069 36.989 121.906C37.1149 113.721 37.3668 105.537 36.7372 97.3518C36.4853 94.3297 34.3447 89.9225 32.0781 89.041C29.6857 88.1596 25.0266 90.1743 23.1378 92.3149C19.9898 95.9666 17.8492 100.752 15.9604 105.285C13.6938 110.825 10.4199 113.595 5.76084 111.833C0.59812 109.944 -0.1574 105.914 1.22772 101.003C5.38308 86.0189 14.4493 75.0639 29.182 70.153C38.2482 67.1309 36.7372 60.5831 37.1149 54.0352C37.4927 47.9911 35.3521 44.3394 29.182 42.3247C18.4788 38.7989 17.5973 39.1767 14.5753 50.0058C13.8197 52.6501 10.0421 55.5463 7.27188 56.05C3.11652 56.8055 0.22036 53.7834 0.0944401 49.1244C-0.03148 35.2731 -0.03148 21.4219 0.0944401 7.57073C0.0944401 3.0376 2.73876 0.519203 7.02004 0.141442C11.6791 -0.236318 14.5753 2.03024 15.7085 6.56337C18.7306 18.148 25.7821 25.8291 37.3668 28.8512C52.729 32.8807 67.8394 24.0663 73.0022 8.57809C73.8836 5.93377 75.1428 2.91168 77.2835 1.40064C82.1943 -2.12512 88.7422 1.40064 88.994 7.57073C89.2459 14.7482 88.994 21.6738 88.994 28.5994Z" fill="#C0C0C0"></path> </svg> 