<?xml version="1.0" encoding="UTF-8"?> <svg xmlns="http://www.w3.org/2000/svg" width="680" height="131" viewBox="0 0 680 131" fill="none"> <g clip-path="url(#clip0_315_6071)"> <path d="M4.2679e-06 4.587e-05C4.2679e-06 4.587e-05 -1.11392e-05 57.4546 1.65936e-05 81.3368C4.13189e-05 102.629 9.01002 118.693 28.597 127.213C48.184 135.733 65.878 127.213 65.878 127.213C65.878 127.213 58.9436 125.386 50.5344 116.402C41.8653 107.141 34.4731 97.2455 34.4731 76.5599C34.4731 54.7072 34.4731 34.3738 34.4731 34.3738C34.4731 34.3738 40.5549 34.3738 65.8123 34.3738C82.2653 34.3738 89.9308 50.8966 85.748 64.2472C81.5652 77.5977 74.5872 81.9046 67.7618 85.1074C60.651 88.4442 46.8477 89.4501 46.8477 89.4501C46.8477 89.4501 65.5912 94.5098 81.5652 90.9483C110.399 84.5196 137.197 58.4063 126.658 25.7546C114.191 -0.000843501 91.1412 0 74.0388 0L4.2679e-06 4.587e-05Z" fill="#C0C0C0"></path> <path d="M159 121.799V104.201H161.608V119.612H171.494V121.799H159Z" fill="#C0C0C0"></path> <path d="M182.156 121.799L190.425 104.201H193.007L201.302 121.799H198.563L191.181 105.609H192.225L184.843 121.799H182.156ZM185.677 117.399L186.382 115.388H196.659L197.415 117.399H185.677Z" fill="#C0C0C0"></path> <path d="M214.459 121.799V104.201H222.649C224.754 104.201 226.371 104.612 227.501 105.433C228.631 106.237 229.197 107.344 229.197 108.751C229.197 109.707 228.971 110.511 228.518 111.165C228.084 111.818 227.492 112.321 226.745 112.673C225.997 113.025 225.188 113.201 224.319 113.201L224.788 112.447C225.832 112.447 226.753 112.623 227.553 112.975C228.353 113.327 228.988 113.846 229.457 114.534C229.927 115.204 230.162 116.042 230.162 117.047C230.162 118.556 229.57 119.729 228.388 120.567C227.223 121.388 225.484 121.799 223.171 121.799H214.459ZM217.067 119.763H223.067C224.51 119.763 225.614 119.528 226.379 119.059C227.145 118.589 227.527 117.852 227.527 116.846C227.527 115.824 227.145 115.078 226.379 114.609C225.614 114.14 224.51 113.905 223.067 113.905H216.833V111.869H222.415C223.736 111.869 224.762 111.634 225.493 111.165C226.223 110.696 226.588 109.992 226.588 109.053C226.588 108.115 226.223 107.411 225.493 106.941C224.762 106.472 223.736 106.237 222.415 106.237H217.067V119.763Z" fill="#C0C0C0"></path> <path d="M252.877 122C251.485 122 250.19 121.774 248.99 121.321C247.808 120.869 246.782 120.24 245.912 119.436C245.043 118.615 244.364 117.659 243.878 116.57C243.391 115.48 243.147 114.291 243.147 113C243.147 111.709 243.391 110.52 243.878 109.43C244.364 108.341 245.043 107.394 245.912 106.589C246.782 105.768 247.808 105.131 248.99 104.679C250.173 104.226 251.468 104 252.877 104C254.268 104 255.546 104.226 256.711 104.679C257.893 105.115 258.919 105.743 259.789 106.564C260.676 107.369 261.354 108.316 261.823 109.405C262.31 110.494 262.554 111.693 262.554 113C262.554 114.307 262.31 115.506 261.823 116.595C261.354 117.684 260.676 118.64 259.789 119.461C258.919 120.265 257.893 120.894 256.711 121.346C255.546 121.782 254.268 122 252.877 122ZM252.877 119.763C253.885 119.763 254.815 119.595 255.668 119.26C256.537 118.925 257.285 118.455 257.911 117.852C258.554 117.232 259.05 116.511 259.398 115.69C259.763 114.869 259.945 113.972 259.945 113C259.945 112.028 259.763 111.131 259.398 110.31C259.05 109.489 258.554 108.777 257.911 108.173C257.285 107.553 256.537 107.075 255.668 106.74C254.815 106.405 253.885 106.237 252.877 106.237C251.851 106.237 250.903 106.405 250.033 106.74C249.181 107.075 248.434 107.553 247.79 108.173C247.147 108.777 246.642 109.489 246.277 110.31C245.93 111.131 245.756 112.028 245.756 113C245.756 113.972 245.93 114.869 246.277 115.69C246.642 116.511 247.147 117.232 247.79 117.852C248.434 118.455 249.181 118.925 250.033 119.26C250.903 119.595 251.851 119.763 252.877 119.763Z" fill="#C0C0C0"></path> <path d="M276.974 121.799V104.201H284.095C285.695 104.201 287.06 104.444 288.19 104.93C289.321 105.416 290.19 106.12 290.799 107.042C291.407 107.964 291.712 109.061 291.712 110.335C291.712 111.609 291.407 112.707 290.799 113.628C290.19 114.534 289.321 115.229 288.19 115.715C287.06 116.201 285.695 116.444 284.095 116.444H278.409L279.583 115.288V121.799H276.974ZM289.181 121.799L284.538 115.413H287.329L292.025 121.799H289.181ZM279.583 115.539L278.409 114.307H284.017C285.686 114.307 286.947 113.964 287.799 113.277C288.668 112.573 289.103 111.592 289.103 110.335C289.103 109.078 288.668 108.106 287.799 107.419C286.947 106.732 285.686 106.388 284.017 106.388H278.409L279.583 105.131V115.539Z" fill="#C0C0C0"></path> <path d="M303.594 121.799L311.863 104.201H314.445L322.74 121.799H320.001L312.62 105.609H313.663L306.281 121.799H303.594ZM307.116 117.399L307.82 115.388H318.097L318.854 117.399H307.116Z" fill="#C0C0C0"></path> <path d="M338.606 121.799V106.388H332.346V104.201H347.449V106.388H341.188V121.799H338.606Z" fill="#C0C0C0"></path> <path d="M368.711 122C367.32 122 366.024 121.774 364.824 121.321C363.642 120.869 362.616 120.24 361.747 119.436C360.877 118.615 360.199 117.659 359.712 116.57C359.225 115.48 358.982 114.291 358.982 113C358.982 111.709 359.225 110.52 359.712 109.43C360.199 108.341 360.877 107.394 361.747 106.589C362.616 105.768 363.642 105.131 364.824 104.679C366.007 104.226 367.302 104 368.711 104C370.102 104 371.38 104.226 372.545 104.679C373.728 105.115 374.754 105.743 375.623 106.564C376.51 107.369 377.188 108.316 377.658 109.405C378.145 110.494 378.388 111.693 378.388 113C378.388 114.307 378.145 115.506 377.658 116.595C377.188 117.684 376.51 118.64 375.623 119.461C374.754 120.265 373.728 120.894 372.545 121.346C371.38 121.782 370.102 122 368.711 122ZM368.711 119.763C369.72 119.763 370.65 119.595 371.502 119.26C372.371 118.925 373.119 118.455 373.745 117.852C374.389 117.232 374.884 116.511 375.232 115.69C375.597 114.869 375.78 113.972 375.78 113C375.78 112.028 375.597 111.131 375.232 110.31C374.884 109.489 374.389 108.777 373.745 108.173C373.119 107.553 372.371 107.075 371.502 106.74C370.65 106.405 369.72 106.237 368.711 106.237C367.685 106.237 366.737 106.405 365.868 106.74C365.016 107.075 364.268 107.553 363.625 108.173C362.981 108.777 362.477 109.489 362.112 110.31C361.764 111.131 361.59 112.028 361.59 113C361.59 113.972 361.764 114.869 362.112 115.69C362.477 116.511 362.981 117.232 363.625 117.852C364.268 118.455 365.016 118.925 365.868 119.26C366.737 119.595 367.685 119.763 368.711 119.763Z" fill="#C0C0C0"></path> <path d="M392.809 121.799V104.201H399.929C401.529 104.201 402.894 104.444 404.025 104.93C405.155 105.416 406.024 106.12 406.633 107.042C407.242 107.964 407.546 109.061 407.546 110.335C407.546 111.609 407.242 112.707 406.633 113.628C406.024 114.534 405.155 115.229 404.025 115.715C402.894 116.201 401.529 116.444 399.929 116.444H394.243L395.417 115.288V121.799H392.809ZM405.016 121.799L400.373 115.413H403.164L407.859 121.799H405.016ZM395.417 115.539L394.243 114.307H399.851C401.521 114.307 402.781 113.964 403.633 113.277C404.503 112.573 404.938 111.592 404.938 110.335C404.938 109.078 404.503 108.106 403.633 107.419C402.781 106.732 401.521 106.388 399.851 106.388H394.243L395.417 105.131V115.539Z" fill="#C0C0C0"></path> <path d="M422.194 121.799V104.201H424.802V121.799H422.194Z" fill="#C0C0C0"></path> <path d="M443.076 111.793H452.466V113.93H443.076V111.793ZM443.311 119.612H453.953V121.799H440.702V104.201H453.588V106.388H443.311V119.612Z" fill="#C0C0C0"></path> <path d="M473.931 122C472.54 122 471.21 121.799 469.94 121.397C468.671 120.978 467.671 120.441 466.941 119.788L467.906 117.827C468.601 118.413 469.488 118.899 470.566 119.285C471.645 119.67 472.766 119.863 473.931 119.863C474.992 119.863 475.853 119.746 476.514 119.511C477.174 119.277 477.661 118.958 477.974 118.556C478.287 118.137 478.444 117.668 478.444 117.148C478.444 116.545 478.235 116.059 477.818 115.69C477.418 115.321 476.887 115.028 476.227 114.81C475.583 114.575 474.87 114.374 474.088 114.207C473.305 114.039 472.514 113.846 471.714 113.628C470.932 113.394 470.21 113.101 469.549 112.749C468.906 112.397 468.384 111.927 467.984 111.341C467.584 110.737 467.384 109.966 467.384 109.028C467.384 108.123 467.628 107.293 468.115 106.539C468.619 105.768 469.384 105.156 470.41 104.704C471.453 104.235 472.775 104 474.375 104C475.435 104 476.487 104.134 477.531 104.402C478.574 104.67 479.478 105.056 480.244 105.559L479.383 107.57C478.6 107.067 477.774 106.707 476.905 106.489C476.035 106.254 475.192 106.137 474.375 106.137C473.349 106.137 472.505 106.263 471.845 106.514C471.184 106.765 470.697 107.101 470.384 107.52C470.088 107.939 469.94 108.408 469.94 108.927C469.94 109.547 470.14 110.042 470.54 110.411C470.958 110.779 471.488 111.073 472.131 111.291C472.792 111.508 473.514 111.709 474.296 111.894C475.079 112.061 475.861 112.254 476.644 112.472C477.444 112.69 478.166 112.975 478.809 113.327C479.47 113.679 480 114.148 480.4 114.735C480.8 115.321 481 116.075 481 116.997C481 117.885 480.748 118.715 480.244 119.486C479.739 120.24 478.957 120.852 477.896 121.321C476.853 121.774 475.531 122 473.931 122Z" fill="#C0C0C0"></path> <path d="M163.196 85.8132C161.867 85.8132 160.836 85.4285 160.101 84.6593C159.367 83.89 159 82.8411 159 81.5123V20.1995C159 18.8708 159.385 17.8393 160.154 17.105C160.923 16.3707 161.972 16.0036 163.301 16.0036H188.109C196.571 16.0036 203.092 17.9792 207.673 21.9303C212.253 25.8815 214.543 31.3886 214.543 38.4517C214.543 45.4449 212.253 50.9171 207.673 54.8683C203.127 58.8194 196.606 60.795 188.109 60.795H173.476V81.5123C173.476 82.876 173.126 83.9425 172.427 84.7117C171.728 85.446 170.714 85.8132 169.385 85.8132H163.196ZM173.476 49.4136H188.739C192.13 49.4136 194.805 48.487 196.763 46.6338C198.721 44.7806 199.7 42.1581 199.7 38.7664C199.7 35.3398 198.721 32.6998 196.763 30.8466C194.805 28.9585 192.13 28.0144 188.739 28.0144H173.476V49.4136Z" fill="#C0C0C0"></path> <path d="M253.933 30.6893C260.576 30.6893 265.926 32.8047 269.982 37.0356C274.038 41.2665 276.066 46.8261 276.066 53.7144V81.6172C276.066 82.911 275.716 83.9425 275.017 84.7117C274.318 85.446 273.339 85.8132 272.08 85.8132H265.891C264.597 85.8132 263.583 85.446 262.849 84.7117C262.15 83.9425 261.8 82.911 261.8 81.6172V54.7634C261.8 51.1968 260.786 48.3471 258.758 46.2142C256.73 44.0463 253.985 42.9623 250.523 42.9623C247.027 42.9623 244.195 44.0463 242.027 46.2142C239.894 48.3821 238.827 51.2318 238.827 54.7634V81.6172C238.827 82.911 238.478 83.9425 237.778 84.7117C237.079 85.446 236.1 85.8132 234.841 85.8132H228.705C227.411 85.8132 226.397 85.446 225.663 84.7117C224.963 83.9425 224.614 82.911 224.614 81.6172V14.4826C224.614 13.2937 224.946 12.3846 225.61 11.7552C226.275 11.0909 227.306 10.6013 228.705 10.2866L234.527 9.23766C235.925 8.9929 236.992 9.23766 237.726 9.97195C238.46 10.7062 238.827 11.7902 238.827 13.2238V36.616C242.778 32.6649 247.814 30.6893 253.933 30.6893Z" fill="#C0C0C0"></path> <path d="M312.099 30.6893C314.861 30.6893 317.431 30.969 319.809 31.5285C322.221 32.053 324.442 32.9096 326.47 34.0985C328.533 35.2524 330.281 36.7034 331.714 38.4517C333.183 40.1651 334.319 42.2805 335.124 44.7981C335.963 47.3156 336.382 50.1304 336.382 53.2423V81.6172C336.382 82.9459 336.033 83.9774 335.333 84.7117C334.669 85.446 333.69 85.8132 332.396 85.8132H328.987C327.693 85.8132 326.679 85.446 325.945 84.7117C325.246 83.9425 324.896 82.911 324.896 81.6172V79.7815C319.826 84.7467 313.917 87.2293 307.168 87.2293C300.874 87.2293 295.787 85.6383 291.906 82.4564C288.059 79.2745 286.136 75.0961 286.136 69.9211C286.136 64.4315 288.234 60.0257 292.43 56.704C296.661 53.3472 302.221 51.6689 309.109 51.6689C313.759 51.6689 318.41 52.6304 323.06 54.5536V51.6689C323.06 48.5569 321.994 46.0918 319.861 44.2736C317.763 42.4553 314.861 41.5462 311.154 41.5462C306.119 41.5462 301.539 42.9449 297.413 45.7421C295.21 47.0709 293.409 46.5638 292.011 44.2211L291.066 42.5428C289.563 39.9902 289.948 38.0147 292.22 36.616C298.095 32.6649 304.721 30.6893 312.099 30.6893ZM310.263 77.4213C313.794 77.4213 316.854 76.4772 319.441 74.5891C322.064 72.7009 323.375 70.4631 323.375 67.8756V63.8895C319.179 61.8265 315.071 60.795 311.05 60.795C307.658 60.795 304.931 61.5817 302.868 63.1552C300.805 64.7287 299.773 66.8091 299.773 69.3966C299.773 71.8093 300.717 73.7499 302.605 75.2185C304.528 76.687 307.081 77.4213 310.263 77.4213Z" fill="#C0C0C0"></path> <path d="M383.482 31.6858C384.461 32.0005 385.177 32.4726 385.632 33.1019C386.122 33.7313 386.191 34.6929 385.842 35.9866L384.478 41.3364C383.849 43.6092 382.415 44.4309 380.177 43.8015C378.569 43.2421 376.978 42.9623 375.404 42.9623C371.943 42.9623 369.233 44.1687 367.275 46.5813C365.352 48.959 364.39 52.1234 364.39 56.0746V81.6172C364.39 82.911 364.04 83.9425 363.341 84.7117C362.642 85.446 361.663 85.8132 360.404 85.8132H354.163C352.869 85.8132 351.855 85.446 351.121 84.7117C350.421 83.9425 350.072 82.911 350.072 81.6172V35.6719C350.072 34.3782 350.421 33.3817 351.121 32.6824C351.855 31.9481 352.869 31.5809 354.163 31.5809H358.254C359.547 31.5809 360.544 31.9481 361.243 32.6824C361.978 33.3817 362.345 34.3782 362.345 35.6719V38.9762C366.051 33.4516 370.841 30.6893 376.716 30.6893C378.953 30.6893 381.209 31.0215 383.482 31.6858Z" fill="#C0C0C0"></path> <path d="M458.589 30.6893C465.232 30.6893 470.564 32.8047 474.585 37.0356C478.607 41.2665 480.617 46.8261 480.617 53.7144V81.6172C480.617 82.911 480.25 83.9425 479.516 84.7117C478.816 85.446 477.82 85.8132 476.526 85.8132H470.337C469.078 85.8132 468.099 85.446 467.4 84.7117C466.701 83.9425 466.351 82.911 466.351 81.6172V54.7634C466.351 51.1269 465.389 48.2597 463.466 46.1617C461.578 44.0288 458.956 42.9623 455.599 42.9623C452.172 42.9623 449.392 44.0463 447.26 46.2142C445.162 48.3471 444.113 51.1968 444.113 54.7634V81.6172C444.113 82.911 443.763 83.9425 443.064 84.7117C442.364 85.446 441.385 85.8132 440.126 85.8132H433.885C432.591 85.8132 431.577 85.446 430.843 84.7117C430.144 83.9425 429.794 82.911 429.794 81.6172V54.7634C429.794 51.1269 428.85 48.2597 426.962 46.1617C425.074 44.0288 422.451 42.9623 419.094 42.9623C415.668 42.9623 412.888 44.0463 410.755 46.2142C408.657 48.3471 407.608 51.1968 407.608 54.7634V81.6172C407.608 82.911 407.258 83.9425 406.559 84.7117C405.86 85.446 404.881 85.8132 403.622 85.8132H397.381C396.087 85.8132 395.073 85.446 394.339 84.7117C393.639 83.9425 393.29 82.911 393.29 81.6172V35.6719C393.29 34.3782 393.639 33.3817 394.339 32.6824C395.073 31.9481 396.087 31.5809 397.381 31.5809H401.472C402.765 31.5809 403.762 31.9481 404.461 32.6824C405.195 33.3817 405.563 34.3782 405.563 35.6719V39.2909C409.759 33.5565 415.44 30.6893 422.609 30.6893C426.49 30.6893 429.934 31.4585 432.941 32.997C435.948 34.5006 438.378 36.6335 440.231 39.3958C442.259 36.7034 444.829 34.588 447.941 33.0495C451.088 31.476 454.637 30.6893 458.589 30.6893Z" fill="#C0C0C0"></path> <path d="M516.65 30.6893C519.412 30.6893 521.982 30.969 524.359 31.5285C526.772 32.053 528.993 32.9096 531.021 34.0985C533.084 35.2524 534.832 36.7034 536.265 38.4517C537.734 40.1651 538.87 42.2805 539.675 44.7981C540.514 47.3156 540.933 50.1304 540.933 53.2423V81.6172C540.933 82.9459 540.584 83.9774 539.884 84.7117C539.22 85.446 538.241 85.8132 536.947 85.8132H533.538C532.244 85.8132 531.23 85.446 530.496 84.7117C529.797 83.9425 529.447 82.911 529.447 81.6172V79.7815C524.377 84.7467 518.468 87.2293 511.719 87.2293C505.425 87.2293 500.338 85.6383 496.457 82.4564C492.61 79.2745 490.687 75.0961 490.687 69.9211C490.687 64.4315 492.785 60.0257 496.981 56.704C501.212 53.3472 506.772 51.6689 513.66 51.6689C518.31 51.6689 522.961 52.6304 527.611 54.5536V51.6689C527.611 48.5569 526.545 46.0918 524.412 44.2736C522.314 42.4553 519.412 41.5462 515.705 41.5462C510.67 41.5462 506.09 42.9449 501.964 45.7421C499.761 47.0709 497.96 46.5638 496.562 44.2211L495.617 42.5428C494.114 39.9902 494.499 38.0147 496.771 36.616C502.646 32.6649 509.272 30.6893 516.65 30.6893ZM514.814 77.4213C518.345 77.4213 521.405 76.4772 523.992 74.5891C526.615 72.7009 527.926 70.4631 527.926 67.8756V63.8895C523.73 61.8265 519.622 60.795 515.601 60.795C512.209 60.795 509.481 61.5817 507.418 63.1552C505.355 64.7287 504.324 66.8091 504.324 69.3966C504.324 71.8093 505.268 73.7499 507.156 75.2185C509.079 76.687 511.632 77.4213 514.814 77.4213Z" fill="#C0C0C0"></path> <path d="M558.923 85.8132C557.63 85.8132 556.616 85.446 555.881 84.7117C555.182 83.9425 554.832 82.911 554.832 81.6172V14.4826C554.832 13.2937 555.165 12.3846 555.829 11.7552C556.493 11.0909 557.525 10.6013 558.923 10.2866L564.85 9.13276C566.249 8.81807 567.315 9.06283 568.049 9.86705C568.784 10.6363 569.151 11.7552 569.151 13.2238V81.6172C569.151 82.911 568.801 83.9425 568.102 84.7117C567.403 85.446 566.424 85.8132 565.165 85.8132H558.923Z" fill="#C0C0C0"></path> <path d="M629.677 31.5809C630.971 31.5809 631.915 31.983 632.509 32.7872C633.139 33.5565 633.191 34.5181 632.667 35.6719L607.963 92.4742C605.795 97.5443 603.208 101.093 600.201 103.121C597.229 105.184 593.732 106.216 589.711 106.216C586.634 106.216 583.907 105.639 581.529 104.485C579.536 103.471 578.819 102.072 579.378 100.289L580.585 96.1456C581.249 94.0477 582.823 93.4357 585.305 94.3099C586.529 94.7994 587.788 95.0442 589.082 95.0442C590.515 95.0442 591.756 94.6945 592.805 93.9952C593.854 93.3308 594.833 92.0021 595.743 90.0091L599.362 81.9319L578.539 35.6719C578.015 34.5181 578.05 33.5565 578.644 32.7872C579.274 31.983 580.235 31.5809 581.529 31.5809H588.505C590.882 31.5809 592.578 32.9446 593.592 35.6719L606.337 67.9805L619.135 35.6719C620.149 32.9446 621.792 31.5809 624.065 31.5809H629.677Z" fill="#C0C0C0"></path> <path d="M658.314 87.2293C654.153 87.2293 650.132 86.4775 646.251 84.974C642.37 83.4704 639.293 81.4949 637.02 79.0472C634.922 77.0542 634.852 75.0436 636.81 73.0156L638.646 70.9701C640.499 68.9421 642.492 68.8372 644.625 70.6554C648.821 74.3268 653.332 76.1626 658.157 76.1626C660.465 76.1626 662.318 75.6905 663.716 74.7464C665.115 73.7674 665.814 72.5086 665.814 70.9701C665.814 70.2008 665.64 69.5015 665.29 68.8721C664.975 68.2428 664.608 67.7183 664.188 67.2987C663.804 66.8791 663.157 66.4245 662.248 65.935C661.374 65.4455 660.657 65.0783 660.097 64.8336C659.573 64.5888 658.716 64.2391 657.527 63.7846C657.073 63.6098 656.723 63.4699 656.478 63.365C654.87 62.8055 653.594 62.3685 652.65 62.0538C651.706 61.7041 650.499 61.2146 649.031 60.5852C647.597 59.9558 646.443 59.3614 645.569 58.8019C644.73 58.2425 643.786 57.5432 642.737 56.704C641.688 55.8298 640.884 54.9382 640.324 54.0291C639.765 53.12 639.293 52.036 638.908 50.7772C638.523 49.5185 638.331 48.1723 638.331 46.7387C638.331 41.8784 640.184 37.9972 643.891 35.095C647.597 32.1579 652.545 30.6893 658.734 30.6893C662.23 30.6893 665.622 31.2662 668.909 32.4201C672.231 33.539 674.923 35.0775 676.986 37.0356C678.035 37.9447 678.594 38.8538 678.664 39.763C678.734 40.6371 678.245 41.7735 677.196 43.1721L675.675 45.1128C673.927 47.1058 671.968 47.2806 669.801 45.6372C666.339 42.84 662.65 41.4413 658.734 41.4413C656.671 41.4413 655.027 41.8609 653.804 42.7001C652.58 43.5043 651.968 44.5883 651.968 45.9519C651.968 46.3366 652.02 46.7037 652.125 47.0534C652.23 47.3681 652.405 47.6828 652.65 47.9975C652.929 48.3121 653.174 48.5919 653.384 48.8366C653.629 49.0814 653.996 49.3436 654.485 49.6234C655.01 49.9031 655.447 50.1479 655.797 50.3577C656.146 50.5325 656.671 50.7598 657.37 51.0395C658.069 51.3192 658.629 51.5465 659.048 51.7213C659.468 51.8962 660.115 52.1584 660.989 52.5081C661.898 52.8228 662.58 53.0675 663.035 53.2423C665.133 54.0815 666.881 54.8508 668.279 55.5501C669.678 56.2145 671.147 57.0711 672.685 58.1201C674.224 59.1691 675.43 60.253 676.304 61.3719C677.213 62.4909 677.965 63.8545 678.559 65.463C679.154 67.0714 679.451 68.8372 679.451 70.7603C679.451 75.8304 677.51 79.8515 673.629 82.8236C669.783 85.7607 664.678 87.2293 658.314 87.2293Z" fill="#C0C0C0"></path> </g> <defs> <clipPath id="clip0_315_6071"> <rect width="679.451" height="131" fill="white"></rect> </clipPath> </defs> </svg> 