<?xml version="1.0" encoding="UTF-8"?> <svg xmlns="http://www.w3.org/2000/svg" width="59" height="59" viewBox="0 0 59 59" fill="none"><g clip-path="url(#clip0_956_13)"><path fill-rule="evenodd" clip-rule="evenodd" d="M58.6042 29.3058C58.6042 45.4909 45.4852 58.6115 29.3021 58.6115C13.119 58.6115 0 45.4909 0 29.3058C0 13.1206 13.119 0 29.3021 0C45.4852 0 58.6042 13.1206 58.6042 29.3058ZM21.1161 40.2615C20.9127 39.9385 20.8016 39.5659 20.795 39.1841V19.6521C20.8016 19.2704 20.9127 18.8977 21.1161 18.5747C21.3196 18.2517 21.6076 17.9906 21.949 17.8199C22.2899 17.6272 22.6748 17.5259 23.0664 17.5259C23.4579 17.5259 23.8428 17.6272 24.1837 17.8199L40.0283 27.5492C40.3731 27.7153 40.664 27.9754 40.8675 28.2996C41.0711 28.6237 41.1791 28.9987 41.1791 29.3815C41.1791 29.7643 41.0711 30.1393 40.8675 30.4634C40.664 30.7875 40.3731 31.0476 40.0283 31.2137L24.1837 41.0164C23.8428 41.2091 23.4579 41.3103 23.0664 41.3103C22.6748 41.3103 22.2899 41.2091 21.949 41.0164C21.6076 40.8456 21.3196 40.5846 21.1161 40.2615Z" fill="white"></path></g><defs><clipPath id="clip0_956_13"><rect width="59" height="59" fill="white"></rect></clipPath></defs></svg> 