<?xml version="1.0" encoding="UTF-8"?> <svg xmlns="http://www.w3.org/2000/svg" width="490" height="131" viewBox="0 0 490 131" fill="none"> <g clip-path="url(#clip0_319_6097)"> <path d="M31.0249 51.0611H23.2397C19.2996 51.1355 15.3741 50.5625 11.6198 49.3652V71.0186H0V21.1132C0 7.82375 7.74655 1.17125 23.2397 1.15576H31.0016C46.4948 1.15576 54.2414 7.80826 54.2414 21.1132V31.1036C54.3188 44.4242 46.58 51.0767 31.0249 51.0611ZM23.2397 41.094H31.0016C38.787 41.094 42.6215 37.7484 42.6215 31.1036V21.1132C42.6215 14.4685 38.7482 11.1461 31.0016 11.1461H23.2397C15.4931 11.1461 11.6198 14.4685 11.6198 21.1132V31.1036C11.6198 37.7484 15.4776 41.094 23.2397 41.094Z" fill="#C0C0C0"></path> <path d="M85.0575 21.1143H92.9589V31.1046H85.0575C77.2954 31.1046 73.4376 34.4271 73.4376 41.095V71.0197H61.8178V41.095C61.7559 27.7746 69.5024 21.1143 85.0575 21.1143Z" fill="#C0C0C0"></path> <path d="M100.488 11.1461V1.15576H112.108V11.1461H100.488ZM112.108 21.1133V71.0187H100.488V21.1133H112.108Z" fill="#C0C0C0"></path> <path d="M132.745 41.095V71.0197H121.125V41.095C121.125 27.79 128.872 21.1298 144.365 21.1143C152.111 21.1143 157.944 22.7794 161.864 26.1095C165.783 22.7794 171.633 21.1143 179.411 21.1143C194.903 21.1143 202.65 27.7746 202.65 41.095V71.0197H191.03V41.095C191.03 34.4348 187.156 31.1046 179.411 31.1046C171.664 31.1046 167.791 34.4348 167.791 41.095V71.0197H156.17V41.095C156.17 34.4348 152.297 31.1046 144.551 31.1046C136.649 31.1046 132.745 34.4271 132.745 41.095Z" fill="#C0C0C0"></path> <path d="M241.484 71.0197H233.697C218.205 71.0197 210.458 66.0322 210.458 56.0574C210.458 46.0825 218.205 41.095 233.697 41.095H253.149C253.149 34.4271 249.245 31.1046 241.53 31.1046H218.29V21.1143H241.53C257.024 21.1143 264.769 27.7746 264.769 41.095V51.0622C264.877 64.3826 257.115 71.0351 241.484 71.0197ZM233.697 61.0526H241.484C249.245 61.0526 253.103 57.707 253.103 51.0622H233.652C225.89 51.0622 222.032 52.735 222.032 56.0574C222.032 59.3797 225.936 61.0526 233.697 61.0526Z" fill="#C0C0C0"></path> <path d="M303.556 1.15576C319.048 1.15576 326.795 7.80827 326.795 21.1133H315.176C315.176 14.4685 311.303 11.1461 303.556 11.1461H295.771C288.008 11.1461 284.152 12.7957 284.152 16.1413C284.152 19.4869 291.262 25.272 305.531 33.5895C319.8 41.9072 326.912 49.3883 326.912 56.0564C326.912 66.0156 319.165 71.0031 303.672 71.0187H295.888C280.394 71.0187 272.647 64.3662 272.647 51.0612H284.268C284.268 57.7058 288.149 61.0516 295.888 61.0516H303.672C311.419 61.0516 315.292 59.3864 315.292 56.0564C315.292 52.7262 308.166 46.9024 293.911 38.5847C279.642 30.2672 272.516 22.7861 272.53 16.1413C272.53 6.15094 280.277 1.15576 295.771 1.15576H303.556Z" fill="#C0C0C0"></path> <path d="M334.651 51.0622V21.1143H346.271V51.0622C346.271 57.707 350.152 61.0526 357.891 61.0526H365.652C373.439 61.0526 377.272 57.707 377.272 51.0622V21.1143H388.893V51.0622C388.893 64.3672 381.146 71.0197 365.652 71.0197H357.891C342.305 71.0197 334.558 64.3672 334.651 51.0622Z" fill="#C0C0C0"></path> <path d="M420.638 21.1143H428.399V31.1046H420.638C412.89 31.1046 409.018 34.4348 409.018 41.095V71.0197H397.396V41.095C397.396 27.7746 405.143 21.1143 420.638 21.1143Z" fill="#C0C0C0"></path> <path d="M458.587 21.1143H466.373C481.866 21.1143 489.613 26.1018 489.613 36.0766C489.613 46.0516 481.866 51.0466 466.373 51.0622H446.922C446.922 57.707 450.794 61.0293 458.541 61.0293H481.781V71.0197H458.541C443.049 71.0197 435.302 64.3672 435.302 51.0622V41.0718C435.271 27.7668 443.032 21.1143 458.587 21.1143ZM466.373 31.1046H458.587C450.842 31.1046 446.967 34.4271 446.967 41.0718H466.419C474.166 41.0718 478.039 39.4068 478.039 36.0766C478.039 32.7466 474.15 31.0893 466.373 31.1046Z" fill="#C0C0C0"></path> <path d="M186.451 129.497L186.498 91.4639H174.11V86.6313H204.717V91.4639H192.377V129.497H186.451Z" fill="#C0C0C0"></path> <path d="M218.778 129.498C209.32 129.498 204.835 125.618 204.835 117.579V111.236C204.835 103.198 209.482 99.2944 218.778 99.2944H223.728C233.21 99.2944 237.811 103.198 237.811 111.236V117.579C237.811 125.618 233.164 129.498 223.728 129.498H218.778ZM218.778 104.15C212.038 104.15 210.645 108.007 210.645 111.12V117.463C210.645 120.692 212.038 124.433 218.778 124.433H223.728C230.467 124.433 231.885 120.576 231.885 117.463V111.236C231.885 108.007 230.467 104.266 223.728 104.266L218.778 104.15Z" fill="#C0C0C0"></path> <path d="M258.704 129.497C249.222 129.497 244.621 125.617 244.621 117.578V86.6313H250.547V99.2936H262.887V104.149H250.547V117.578C250.547 120.808 251.965 124.548 258.704 124.548H262.887V129.381L258.704 129.497Z" fill="#C0C0C0"></path> <path d="M283.523 129.498C274.042 129.498 269.44 126.64 269.44 120.739C269.44 114.838 274.088 111.98 283.523 111.98H296.608V111.236C296.608 108.007 295.19 104.266 288.45 104.266H274.228V99.2944H288.311C297.792 99.2944 302.393 103.198 302.393 111.236V117.579C302.393 125.618 297.746 129.498 288.311 129.498H283.523ZM283.523 116.836C281.502 116.836 275.367 116.836 275.367 120.739C275.367 124.642 281.502 124.665 283.523 124.665H288.45C295.19 124.665 296.608 120.809 296.608 117.695V116.836H283.523Z" fill="#C0C0C0"></path> <path d="M315.502 86.6313H309.599V129.52H315.502V86.6313Z" fill="#C0C0C0"></path> </g> <defs> <clipPath id="clip0_319_6097"> <rect width="489.612" height="131" fill="white"></rect> </clipPath> </defs> </svg> 