<?xml version="1.0" encoding="UTF-8"?> <svg xmlns="http://www.w3.org/2000/svg" width="60" height="60" viewBox="0 0 60 60" fill="none"> <circle cx="30" cy="30" r="30" fill="black"></circle> <path d="M27.8625 20C26.2951 20 25.0246 21.2718 25.0246 22.8407C25.0246 23.6165 25.335 24.3202 25.8386 24.8328H20V29.5673C20.5204 28.9655 21.2898 28.5839 22.1474 28.5839C23.7148 28.5839 24.9853 29.8556 24.9853 31.4246C24.9853 32.9935 23.7148 34.2652 22.1474 34.2652C21.2898 34.2652 20.5204 33.8836 20 33.2818V40H26.1333C25.4848 39.4794 25.0695 38.68 25.0695 37.7831C25.0695 36.2141 26.34 34.9424 27.9074 34.9424C29.4748 34.9424 30.7453 36.2141 30.7453 37.7831C30.7453 38.68 30.33 39.4793 29.6814 40H35.1523V34.0658C35.6661 34.5815 36.3769 34.9003 37.1621 34.9003C38.7295 34.9003 40 33.6285 40 32.0596C40 30.4906 38.7295 29.2189 37.1621 29.2189C36.377 29.2189 35.6661 29.5376 35.1523 30.0534V24.8328H29.8863C30.3902 24.3201 30.7004 23.6166 30.7004 22.8407C30.7004 21.2717 29.4299 20 27.8625 20Z" fill="#EBFF00"></path> </svg> 