<?xml version="1.0" encoding="UTF-8"?> <svg xmlns="http://www.w3.org/2000/svg" width="287" height="131" viewBox="0 0 287 131" fill="none"> <path d="M69.8526 89.1885C65.3273 85.0802 58.5993 81.1642 49.6688 77.4404L38.025 72.6238C33.7599 70.8226 30.396 68.9 27.933 66.8459C25.4801 64.6602 24.2487 61.837 24.2487 58.3662C24.2487 54.6424 25.5402 51.5562 28.1333 49.1175C30.7163 46.5473 34.9213 45.2622 40.7482 45.2622C48.5074 45.2622 54.3944 47.4479 58.4091 51.8091C62.4238 56.049 64.9368 61.2501 65.9781 67.4126H72.7661C72.7661 62.5352 72.5759 58.0424 72.1854 53.924C71.7949 49.8157 70.4433 46.6687 68.1106 44.483C65.5275 42.0444 61.6429 40.1218 56.4668 38.7051C51.4208 37.2885 44.8931 36.5903 36.8736 36.5903C26.2611 36.5903 17.4707 38.7759 10.4824 43.1372C3.49413 47.5187 0 53.8734 0 62.2215C0 68.5155 2.20261 73.7774 6.59781 78.0172C10.993 82.257 17.0802 86.0415 24.8394 89.3808L34.9313 93.6206C39.8471 95.8063 43.982 98.0527 47.346 100.36C50.71 102.546 52.392 105.5 52.392 109.224C52.392 112.948 50.9703 116.095 48.1269 118.665C45.2836 121.104 40.2376 122.328 32.989 122.328C25.2298 122.328 19.3429 120.213 15.3281 115.973C11.3134 111.602 8.80041 106.34 7.75918 100.178H0.971149C0.971149 105.055 1.16137 109.548 1.55184 113.666C1.9423 117.775 3.2939 120.922 5.62666 123.107C8.20971 125.546 12.0342 127.479 17.0702 128.885C22.2463 130.302 28.8441 131 36.8636 131C48.3772 131 57.8885 128.814 65.3874 124.453C72.8862 120.082 76.6407 113.727 76.6407 105.379C76.6407 98.5688 74.378 93.1754 69.8526 89.1986V89.1885Z" fill="#C0C0C0"></path> <path d="M158.878 46.6181C155.514 43.2789 151.379 40.7795 146.463 39.1099C141.548 37.4403 135.921 36.6105 129.584 36.6105C123.246 36.6105 117.359 37.1266 111.923 38.1486C106.616 39.0492 102.802 40.7795 100.479 43.3497C98.1463 45.9199 96.7247 48.9354 96.2141 52.4062C95.8236 55.877 95.6334 59.2769 95.6334 62.6162H106.306C107.858 55.4216 110.381 50.7366 113.875 48.5509C117.369 46.3652 121.314 45.2723 125.709 45.2723C129.594 45.2723 132.887 46.2336 135.601 48.1663C138.444 50.0889 140.587 53.3068 142.008 57.7996C143.43 62.2924 144.141 68.3941 144.141 76.0946H141.227C127.381 76.0946 116.648 77.2482 109.019 79.5654C101.39 81.7511 96.0839 85.0195 93.1104 89.3909C90.267 93.6307 88.8453 98.8319 88.8453 104.994C88.8453 108.85 89.5562 112.381 90.9779 115.589C92.3996 118.797 94.472 121.559 97.1852 123.876C100.029 126.062 103.463 127.792 107.467 129.077C111.602 130.363 116.388 131 121.824 131C127.641 131 132.557 129.907 136.572 127.721C140.587 125.536 143.43 123.097 145.112 120.405H146.083L152.871 129.077H169.361V77.066C169.361 70.256 168.46 64.3567 166.647 59.3478C164.965 54.2074 162.382 49.9776 158.888 46.6384L158.878 46.6181ZM144.131 108.84C143.1 111.531 141.157 114.294 138.314 117.127C135.471 119.95 131.906 121.367 127.641 121.367C123.757 121.367 120.653 120.021 118.33 117.319C116.128 114.496 115.026 110.388 115.026 104.994C115.026 98.1843 117.029 93.1147 121.043 89.7754C125.188 86.4362 131.906 84.7666 141.227 84.7666H144.141V108.85L144.131 108.84Z" fill="#C0C0C0"></path> <path d="M218.659 33.3217C218.659 23.9515 219.82 17.526 222.153 14.0552C224.486 10.463 227.84 8.66182 232.245 8.66182C233.136 8.66182 234.007 8.73265 234.858 8.85407C234.578 9.29931 234.328 9.76478 234.117 10.2707C233.096 12.6892 233.206 15.3504 234.438 18.2343C235.859 21.5635 238.092 24.073 241.136 25.7729C244.289 27.4223 247.924 27.3515 252.038 25.5503C254.531 24.4575 256.284 22.7069 257.305 20.2784C258.326 17.8599 258.216 15.1987 256.984 12.3148C256.294 10.7058 255.392 9.28919 254.301 8.07492C253.951 7.60944 253.58 7.16421 253.19 6.73922C252.028 5.32256 250.607 4.169 248.925 3.26842C247.243 2.23629 244.72 1.46725 241.356 0.9613C237.992 0.323807 234.628 0 231.264 0C222.854 0 215.806 1.28511 210.119 3.85532C204.552 6.29398 200.347 10.0178 197.504 15.0266C194.791 19.904 193.429 26.0057 193.429 33.3217V38.5228H181.785V47.1947H193.429V129.067H218.659V88.1309V47.1947H243.889V38.5228H218.659V33.3217Z" fill="#C0C0C0"></path> <path d="M284.787 51.4449C283.756 47.8527 281.944 45.2825 279.35 43.7444C276.888 42.2063 273.404 41.4373 268.868 41.4373H245.581V47.2152H247.523C253.34 47.2152 257.034 49.0164 258.586 52.6086C260.268 56.0794 261.109 60.7037 261.109 66.4816V129.067H286.339V66.4816C286.339 60.0561 285.818 55.0472 284.787 51.455V51.4449Z" fill="#C0C0C0"></path> <path d="M275.236 37.9459C277.799 37.9459 279.971 37.1161 281.754 35.4566C283.536 33.7971 284.427 31.5203 284.427 28.6465C284.427 25.3174 283.365 22.3829 281.253 19.833C279.251 17.283 276.137 16.008 271.902 16.008C269.339 16.008 267.166 16.8377 265.394 18.4973C263.612 20.1568 262.721 22.4335 262.721 25.3073C262.721 28.6364 263.722 31.5709 265.725 34.1209C267.837 36.6709 271.011 37.9459 275.246 37.9459H275.236Z" fill="#C0C0C0"></path> </svg> 