<?xml version="1.0" encoding="UTF-8"?> <svg xmlns="http://www.w3.org/2000/svg" width="693" height="133" viewBox="0 0 693 133" fill="none"> <path d="M255.036 6.61768C250.434 6.61768 246.828 8.02717 244.444 10.5145C241.749 13.1055 240.34 16.8158 240.34 21.1065C240.34 25.3971 241.749 29.0038 244.34 31.6155C246.745 34.1236 250.351 35.5123 254.849 35.5123C259.347 35.5123 263.058 34.1028 265.545 31.6155C268.136 29.0245 269.649 25.3142 269.649 21.0235C269.649 16.7329 268.24 13.1262 265.649 10.5145C263.058 7.9028 259.637 6.61768 255.057 6.61768H255.036Z" fill="#C0C0C0" stroke="white" stroke-width="0.5" stroke-miterlimit="10"></path> <path d="M479.083 1C475.124 1 471.518 2.6375 468.885 5.26994C466.253 7.90238 464.615 11.5298 464.615 15.468V116.848C464.615 120.807 466.253 124.414 468.885 127.046C471.518 129.679 475.145 131.316 479.083 131.316C483.022 131.316 486.649 129.679 489.281 127.046C491.914 124.414 493.24 120.786 493.24 116.848V15.4888C493.24 11.5298 491.914 7.92311 489.281 5.29067C486.649 2.65823 483.022 1.02073 479.083 1.02073V1Z" fill="#C0C0C0" stroke="white" stroke-width="0.5" stroke-miterlimit="10"></path> <path d="M255.139 39.2012C251.097 39.2012 247.387 40.8801 244.692 43.5748C241.997 46.2694 240.318 49.9797 240.318 54.0216V115.77C240.318 119.812 241.997 123.522 244.692 126.217C247.387 128.911 251.097 130.59 255.139 130.59C259.181 130.59 262.891 128.911 265.586 126.217C268.28 123.522 269.628 119.812 269.628 115.77V54.0216C269.628 49.9797 268.28 46.2694 265.586 43.5748C262.891 40.8801 259.181 39.2012 255.139 39.2012Z" fill="#C0C0C0" stroke="white" stroke-width="0.5" stroke-miterlimit="10"></path> <path d="M583.407 45.1088C576.173 39.1807 565.311 36.8799 552.149 36.8799C542.614 36.8799 532.395 38.5174 525.161 42.4764C519.565 45.4405 515.627 50.0421 515.627 55.6386C515.627 59.266 516.953 61.8984 519.254 63.8676C521.223 66.1684 524.519 67.4949 527.815 67.4949C530.447 67.4949 532.416 66.8316 533.743 65.8574C535.38 65.1941 536.707 63.8883 538.013 62.5617C539.339 61.2351 540.977 59.5976 543.278 58.2918C545.578 57.2968 548.211 56.3226 551.838 56.3226C558.741 56.3226 562.368 58.6234 564.337 61.9191C566.306 65.2149 566.638 69.4848 566.638 74.418V76.0555H553.476C542.614 76.0555 530.758 77.0505 521.555 80.9888C512.663 84.9478 506.092 92.1818 506.092 105.012C506.092 113.573 509.388 120.144 514.321 124.434C519.917 129.368 527.815 132 536.707 132C542.635 132 548.232 131.337 552.833 129.368C557.435 127.398 561.394 124.103 565 119.169L567.301 115.874L567.964 119.833C568.296 123.129 569.934 126.093 572.234 128.062C574.867 130.031 577.831 131.357 581.127 131.357C585.086 131.357 588.361 129.72 590.661 127.398C593.294 124.766 594.931 121.47 594.931 117.532V74.0864C594.931 60.2609 590.661 51.0577 583.407 45.1296V45.1088ZM566.949 91.5185V93.156C566.949 99.4158 564.98 105.012 561.352 108.951C558.057 112.578 553.455 114.879 547.195 114.879C543.568 114.879 540.293 113.884 537.971 111.583C535.67 109.614 534.344 106.982 534.344 103.354C534.344 97.426 537.64 93.8193 541.91 92.1611C545.869 90.1919 550.802 89.8603 555.072 89.8603H566.928V91.4978L566.949 91.5185Z" fill="#C0C0C0" stroke="white" stroke-width="0.5" stroke-miterlimit="10"></path> <path d="M688.393 101.385C686.093 98.7527 682.797 97.4261 679.17 97.4261C676.537 97.4261 674.568 98.0894 672.91 99.0636C670.609 100.39 668.951 102.359 667.977 104.329C666.339 106.961 664.349 108.93 662.048 110.257C660.079 111.583 657.447 112.226 654.151 112.226C648.886 112.226 643.953 109.925 640.657 104.66C637.693 100.39 636.056 93.7988 636.056 84.5749C636.056 75.351 637.693 68.7802 640.657 64.1786C643.953 58.9138 648.886 56.613 654.151 56.613C657.447 56.613 660.079 57.2763 662.048 58.2505C664.349 59.5771 666.007 61.2146 666.982 63.5154C668.308 65.4845 669.946 67.1427 671.915 68.1169C673.552 69.1119 675.874 69.7544 678.175 69.7544C681.802 69.7544 684.766 68.4279 687.067 66.1271C689.368 63.8263 690.694 60.8622 690.694 57.2348C690.694 55.2657 690.363 53.2758 689.699 51.3066C689.036 49.6691 688.062 48.3426 687.067 47.3476C683.108 44.0519 678.506 41.0878 672.91 39.4503C667.977 37.8128 662.048 36.8179 655.457 36.8179C640.326 36.8179 628.469 41.7511 620.572 49.6484C611.68 58.5407 607.078 70.7079 607.078 84.5334C607.078 99.3538 611.037 111.521 619.245 119.75C627.454 127.979 638.667 131.917 654.13 131.917C661.696 131.917 668.619 130.922 674.216 128.953C680.144 126.652 684.745 123.688 688.704 119.729C689.699 118.734 690.674 117.097 691.337 115.459C692 114.133 692.332 112.164 692.332 110.526C692.332 106.899 690.694 103.624 688.373 101.302L688.393 101.385Z" fill="#C0C0C0" stroke="white" stroke-width="0.5" stroke-miterlimit="10"></path> <path d="M116.118 122.672C117.134 124.351 118.129 126.03 119.476 127.046C120.823 128.393 122.502 129.409 124.181 130.072C124.844 130.404 125.528 130.735 126.192 130.735C128.886 131.419 130.234 131.419 133.26 130.735C133.923 130.735 134.607 130.404 135.271 130.072C136.949 129.388 138.628 128.393 139.976 127.046C141.323 126.03 142.339 124.351 143.002 122.672H143.334C146.36 117.283 148.391 112.578 150.07 109.531C153.096 103.478 154.775 100.431 157.138 100.431C159.501 100.431 160.849 103.457 163.875 109.178C165.554 112.536 167.917 116.93 171.275 122.651C171.959 124.33 173.285 126.009 174.633 127.025C175.98 128.372 177.327 129.388 179.006 130.051C179.69 130.383 180.354 130.714 181.038 130.714C184.064 131.398 185.411 131.398 188.437 130.714C189.122 130.714 189.453 130.383 190.116 130.051C192.127 129.367 193.474 128.372 194.822 127.025C196.169 126.009 197.516 124.33 198.18 122.651L226.805 61.359C228.484 57.6488 228.484 53.2752 227.489 49.9173C226.141 46.207 223.447 43.1807 219.737 41.5018C216.026 39.8228 211.984 39.8228 208.295 41.1701C204.937 42.1858 201.89 44.8804 200.211 48.57L188.085 74.1689C186.074 78.5424 184.043 82.916 182.033 86.958C181.017 88.9686 179.338 90.6682 177.327 91.3315C175.317 91.9948 173.285 91.9948 171.275 90.9999H170.943C168.58 89.9842 167.233 87.9736 166.57 85.9423C165.554 84.2633 165.554 81.9004 166.57 79.8898C166.57 79.5581 172.29 67.7639 172.974 66.4166C177.016 55.9698 175.337 48.57 171.296 44.1964C167.585 40.4861 162.548 38.8071 157.159 38.8071C152.102 38.8071 146.712 40.4861 143.354 44.1964C138.981 48.57 137.302 55.9905 141.675 66.4166C142.359 67.7639 147.728 79.5581 147.728 79.8898C148.744 81.9004 148.744 84.2633 148.06 85.9423C147.376 88.3053 145.697 89.9842 143.686 90.9999H143.354C141.344 92.0155 138.981 92.0156 136.949 91.3315C134.939 90.6475 133.239 88.9686 132.244 86.958C126.855 74.1689 120.118 61.359 114.398 48.57C112.719 44.8597 109.34 42.165 105.982 41.1701C102.272 39.8228 98.2298 39.8228 94.5403 41.5018C90.83 43.1807 88.1353 46.207 87.1404 49.9173C85.7931 53.2752 85.7931 57.6695 87.4721 61.359L116.097 122.651L116.118 122.672Z" fill="#C0C0C0" stroke="white" stroke-width="0.5" stroke-miterlimit="10"></path> <path d="M80.5281 53.2757C82.6009 59.2039 80.5696 65.7746 73.1283 68.718C66.9514 71.1639 58.1006 68.5107 52.7735 60.2403C50.6593 56.9653 49.6229 53.7318 48.1512 51.2444C44.0471 44.4042 32.8333 44.7359 32.2944 54.7267C32.8955 75.3509 77.0251 70.5213 81.0463 99.6854C82.1242 107.458 79.4088 115.335 72.921 121.035C57.2922 134.736 28.7292 134.467 10.385 125.74C1.3684 121.45 -1.49205 111.604 3.29609 105.012C10.1156 95.602 22.9668 97.5505 28.9365 106.837C30.346 109.034 31.5482 111.169 32.5016 113.283C37.8702 125.243 51.9858 123.647 51.9858 114.609C51.9858 93.9853 7.25511 98.8148 3.23391 69.6507C2.15606 61.8778 4.87141 54.0012 11.3592 48.3011C21.9097 39.0564 37.6214 36.2167 52.1931 38.0408C61.4792 39.2015 76.8385 42.7253 80.5281 53.255V53.2757Z" fill="#C0C0C0" stroke="white" stroke-width="0.5" stroke-miterlimit="10"></path> <path d="M363.422 53.2757C365.494 59.2039 363.463 65.7746 356.022 68.718C349.845 71.1639 340.994 68.5107 335.667 60.2403C333.553 56.9653 332.516 53.7318 331.045 51.2444C326.941 44.4042 315.727 44.7359 315.188 54.7267C315.789 75.3509 359.919 70.5213 363.94 99.6854C365.018 107.458 362.302 115.335 355.815 121.035C340.186 134.736 311.623 134.467 293.279 125.74C284.262 121.45 281.402 111.604 286.19 105.012C293.009 95.602 305.86 97.5505 311.83 106.837C313.239 109.034 314.442 111.169 315.395 113.283C320.764 125.243 334.879 123.647 334.879 114.609C334.879 93.9853 290.149 98.8148 286.127 69.6507C285.05 61.8778 287.765 54.0012 294.253 48.3011C304.803 39.0564 320.515 36.2167 335.087 38.0408C344.373 39.2015 359.732 42.7253 363.422 53.255V53.2757Z" fill="#C0C0C0" stroke="white" stroke-width="0.5" stroke-miterlimit="10"></path> <path d="M451.702 53.2757C453.775 59.2039 451.743 65.7746 444.302 68.718C438.125 71.1639 429.274 68.5107 423.947 60.2403C421.833 56.9653 420.797 53.7318 419.325 51.2444C415.221 44.4042 404.007 44.7359 403.468 54.7267C404.069 75.3509 448.199 70.5213 452.22 99.6854C453.298 107.458 450.583 115.335 444.095 121.035C428.466 134.736 399.903 134.467 381.559 125.74C372.542 121.45 369.682 111.604 374.47 105.012C381.289 95.602 394.141 97.5505 400.11 106.837C401.52 109.034 402.722 111.169 403.675 113.283C409.044 125.243 423.16 123.647 423.16 114.609C423.16 93.9853 378.429 98.8148 374.408 69.6507C373.33 61.8778 376.045 54.0012 382.533 48.3011C393.084 39.0564 408.795 36.2167 423.367 38.0408C432.653 39.2015 448.012 42.7253 451.702 53.255V53.2757Z" fill="#C0C0C0" stroke="white" stroke-width="0.5" stroke-miterlimit="10"></path> </svg> 