<?xml version="1.0" encoding="UTF-8"?> <svg xmlns="http://www.w3.org/2000/svg" width="331" height="131" viewBox="0 0 331 131" fill="none"> <path d="M31.665 33.0523L80.156 32.8773V36.6276H31.7025V33.0773L31.665 33.0523ZM120.759 0H124.434V7.50053H156.161C166.162 7.50053 185.976 8.26308 191.564 15.7136C207.44 15.7136 249.243 16.6512 262.294 24.0392V24.1017H330.761V27.852H72.1679V24.1017H252.756C234.842 20.2764 205.527 19.4639 191.576 19.4389H83.4937V15.6886H185.363C176.613 10.8508 161.762 11.2008 150.461 11.2008H102.02L102.133 7.50053H120.759V0Z" fill="#C0C0C0"></path> <path d="M26.9519 47.0159H0V43.2656H303.909V47.0159H31.3897V96.4194H26.9519V47.0159ZM32.1773 130.997C30.5319 131.018 28.9073 130.627 27.4519 129.859C26.0853 129.147 24.9429 128.069 24.1517 126.746C23.3732 125.388 22.9636 123.849 22.9636 122.284C22.9636 120.718 23.3732 119.179 24.1517 117.821C24.9429 116.498 26.0853 115.421 27.4519 114.708C28.9151 113.969 30.5316 113.584 32.171 113.584C33.8104 113.584 35.4269 113.969 36.8901 114.708C38.2709 115.419 39.4299 116.496 40.2403 117.821C41.0349 119.174 41.4538 120.715 41.4538 122.284C41.4538 123.853 41.0349 125.393 40.2403 126.746C39.4469 128.063 38.3105 129.139 36.9526 129.859C35.5017 130.627 33.8812 131.018 32.2398 130.997H32.1773ZM32.1773 127.672C33.1185 127.686 34.0464 127.449 34.8649 126.984C35.6638 126.54 36.3189 125.876 36.7526 125.071C37.2037 124.211 37.4395 123.255 37.4395 122.284C37.4395 121.313 37.2037 120.356 36.7526 119.496C36.3189 118.691 35.6638 118.028 34.8649 117.583C34.0386 117.133 33.1123 116.896 32.171 116.896C31.2297 116.896 30.3034 117.133 29.4771 117.583C28.6811 118.031 28.0271 118.694 27.5894 119.496C27.1383 120.356 26.9026 121.313 26.9026 122.284C26.9026 123.255 27.1383 124.211 27.5894 125.071C28.0271 125.873 28.6811 126.536 29.4771 126.984C30.2995 127.45 31.2319 127.688 32.1773 127.672ZM61.1418 116.996V121.446H68.9923V124.571H61.1418V130.697H57.2415V113.871H69.9674V116.996H61.1418ZM102.632 116.996H97.2443V113.821H111.92V116.996H106.495V130.647H102.632V117.046V116.996ZM142.373 113.821V130.647H138.472V123.759H130.822V130.659H126.921V113.871H130.822V120.509H138.472V113.871L142.373 113.821ZM172.375 127.572V130.697H159.286V113.871H172V116.996H163.149V120.646H170.975V123.684H163.149V127.572H172.375ZM207.552 130.997C206.245 130.999 204.944 130.814 203.689 130.447C202.613 130.166 201.596 129.691 200.689 129.047L202.014 126.109C202.802 126.658 203.671 127.08 204.589 127.359C205.554 127.675 206.562 127.835 207.577 127.834C208.439 127.9 209.303 127.731 210.077 127.347C210.306 127.225 210.499 127.045 210.637 126.826C210.775 126.607 210.854 126.355 210.865 126.096C210.869 125.906 210.83 125.716 210.75 125.543C210.67 125.369 210.551 125.217 210.402 125.096C210.031 124.804 209.606 124.588 209.152 124.459C208.669 124.3 208.006 124.125 207.165 123.934C206.097 123.694 205.045 123.389 204.014 123.021C203.197 122.715 202.471 122.208 201.902 121.546C201.291 120.788 200.979 119.831 201.027 118.858C201.016 117.91 201.295 116.981 201.827 116.196C202.426 115.352 203.255 114.697 204.214 114.308C205.459 113.816 206.79 113.582 208.127 113.621C209.188 113.619 210.246 113.745 211.277 113.996C212.227 114.221 213.134 114.597 213.965 115.108L212.715 118.071C211.305 117.226 209.696 116.769 208.052 116.746C207.214 116.686 206.377 116.868 205.639 117.271C205.396 117.414 205.196 117.619 205.057 117.865C204.919 118.111 204.848 118.389 204.852 118.671C204.86 118.945 204.95 119.211 205.11 119.434C205.271 119.657 205.494 119.826 205.752 119.921C206.64 120.283 207.561 120.56 208.502 120.746C209.573 120.988 210.63 121.292 211.665 121.659C212.472 121.959 213.193 122.452 213.765 123.096C214.382 123.847 214.694 124.802 214.64 125.771C214.648 126.712 214.369 127.632 213.84 128.409C213.229 129.257 212.387 129.913 211.415 130.297C210.172 130.793 208.84 131.031 207.502 130.997H207.552ZM243.317 127.572V130.697H230.254V113.871H242.98V116.996H234.129V120.646H241.942V123.684H234.129V127.572H243.317ZM270.432 127.097H262.606L261.118 130.697H257.131L264.631 113.871H268.481L275.982 130.697H271.894L270.407 127.097H270.432ZM269.181 124.134L266.506 117.696L263.831 124.134H269.181ZM296.196 130.997C294.889 130.999 293.588 130.814 292.333 130.447C291.256 130.166 290.24 129.691 289.333 129.047L290.658 126.109C291.446 126.658 292.315 127.08 293.233 127.359C294.197 127.676 295.206 127.836 296.221 127.834C297.083 127.898 297.946 127.729 298.721 127.347C298.95 127.225 299.143 127.045 299.281 126.826C299.419 126.607 299.498 126.355 299.509 126.096C299.513 125.906 299.474 125.716 299.393 125.543C299.313 125.369 299.194 125.217 299.046 125.096C298.675 124.804 298.25 124.588 297.796 124.459C297.296 124.296 296.646 124.121 295.808 123.934C294.741 123.694 293.689 123.389 292.658 123.021C291.841 122.715 291.114 122.208 290.545 121.546C289.934 120.788 289.623 119.831 289.67 118.858C289.66 117.91 289.939 116.981 290.47 116.196C291.07 115.352 291.898 114.697 292.858 114.308C294.102 113.815 295.433 113.581 296.771 113.621C297.832 113.619 298.89 113.745 299.921 113.996C300.87 114.221 301.778 114.597 302.609 115.108L301.359 118.071C299.948 117.226 298.34 116.769 296.696 116.746C295.858 116.686 295.02 116.868 294.283 117.271C294.04 117.414 293.839 117.619 293.701 117.865C293.563 118.111 293.492 118.389 293.496 118.671C293.504 118.945 293.594 119.211 293.754 119.434C293.915 119.657 294.138 119.826 294.396 119.921C295.284 120.283 296.205 120.56 297.146 120.746C298.217 120.988 299.273 121.292 300.309 121.659C301.116 121.959 301.837 122.452 302.409 123.096C303.025 123.847 303.338 124.802 303.284 125.771C303.292 126.712 303.013 127.632 302.484 128.409C301.873 129.257 301.031 129.913 300.059 130.297C298.815 130.793 297.484 131.031 296.146 130.997H296.196ZM89.9313 85.6436H66.4922L61.4918 96.4194H56.8665L76.0553 56.0915H80.4432L99.682 96.4194H94.9942L89.9938 85.6436H89.9313ZM88.3062 82.1934L78.218 60.5293L68.1173 82.1934H88.3062ZM152.561 75.6179C155.026 76.0187 157.289 77.2229 158.999 79.0431C160.549 80.8847 161.355 83.2384 161.261 85.6436C161.329 87.2037 160.998 88.7553 160.298 90.1512C159.597 91.547 158.552 92.7408 157.261 93.6192C154.598 95.4818 150.648 96.4194 145.448 96.4194H126.059V56.0915H144.21C148.91 56.0915 152.548 56.9958 155.123 58.8042C156.373 59.6408 157.387 60.7854 158.066 62.1277C158.744 63.47 159.066 64.9646 158.999 66.4673C159.057 68.4945 158.456 70.4859 157.286 72.1427C156.082 73.7351 154.44 74.9426 152.561 75.6179ZM130.509 59.6043V74.2428H143.91C146.663 74.4107 149.404 73.7581 151.786 72.3677C152.646 71.744 153.345 70.9255 153.828 69.9792C154.311 69.0329 154.562 67.9858 154.562 66.9235C154.562 65.8613 154.311 64.8142 153.828 63.8679C153.345 62.9216 152.646 62.1031 151.786 61.4794C149.404 60.089 146.663 59.4364 143.91 59.6043H130.509ZM145.36 92.9066C149.11 92.9066 151.973 92.2816 153.898 91.0565C154.851 90.442 155.622 89.5832 156.129 88.5696C156.637 87.5559 156.864 86.4246 156.786 85.2936C156.786 80.2932 152.977 77.7931 145.36 77.7931H130.509V92.9066H145.36ZM210.702 96.7569C206.76 96.8124 202.865 95.8935 199.364 94.0817C196.124 92.3969 193.405 89.8597 191.501 86.7437C189.626 83.5664 188.637 79.9446 188.637 76.2554C188.637 72.5663 189.626 68.9445 191.501 65.7672C193.422 62.6427 196.164 60.1048 199.427 58.4292C202.928 56.6174 206.823 55.6985 210.765 55.754C214.676 55.6944 218.542 56.6049 222.016 58.4042C225.271 60.0808 228.004 62.6191 229.916 65.7422C231.807 68.9231 232.805 72.5551 232.805 76.2554C232.805 79.9558 231.807 83.5878 229.916 86.7687C228.004 89.8918 225.271 92.4301 222.016 94.1067C218.542 95.906 214.676 96.8165 210.765 96.7569H210.702ZM210.702 93.0066C213.841 93.0573 216.941 92.3133 219.715 90.844C222.336 89.4697 224.525 87.3973 226.041 84.856C227.532 82.2531 228.317 79.3053 228.317 76.3055C228.317 73.3056 227.532 70.3578 226.041 67.7548C224.526 65.2098 222.337 63.1332 219.715 61.7544C216.938 60.295 213.839 59.5557 210.702 59.6043C207.554 59.5605 204.444 60.2994 201.652 61.7544C199.003 63.1496 196.785 65.2417 195.238 67.8049C193.691 70.3682 192.873 73.3053 192.873 76.2992C192.873 79.2931 193.691 82.2302 195.238 84.7935C196.785 87.3567 199.003 89.4488 201.652 90.844C204.441 92.3088 207.552 93.0523 210.702 93.0066ZM282.057 96.7569C278.119 96.8124 274.229 95.8934 270.732 94.0817C267.451 92.412 264.693 89.8737 262.756 86.7437C260.881 83.5664 259.892 79.9446 259.892 76.2554C259.892 72.5663 260.881 68.9445 262.756 65.7672C264.682 62.6423 267.428 60.1045 270.694 58.4292C274.204 56.6782 278.072 55.7667 281.995 55.7667C285.917 55.7667 289.786 56.6782 293.296 58.4292C296.551 60.1058 299.284 62.6441 301.196 65.7672C303.087 68.9481 304.085 72.58 304.085 76.2804C304.085 79.9808 303.087 83.6128 301.196 86.7937C299.284 89.9168 296.551 92.4551 293.296 94.1317C289.822 95.931 285.956 96.8415 282.045 96.7819L282.057 96.7569ZM282.057 93.0066C285.2 93.0534 288.303 92.3098 291.083 90.844C293.7 89.4694 295.885 87.3968 297.396 84.856C298.894 82.2555 299.683 79.3068 299.683 76.3055C299.683 73.3041 298.894 70.3554 297.396 67.7548C295.886 65.2103 293.701 63.1334 291.083 61.7544C288.28 60.3411 285.184 59.6049 282.045 59.6049C278.905 59.6049 275.81 60.3411 273.007 61.7544C270.361 63.1526 268.147 65.2457 266.603 67.8086C265.059 70.3715 264.243 73.307 264.243 76.2992C264.243 79.2914 265.059 82.2269 266.603 84.7898C268.147 87.3527 270.361 89.4458 273.007 90.844C275.796 92.3088 278.907 93.0523 282.057 93.0066Z" fill="#C0C0C0"></path> </svg> 